<mxfile modified="2024-05-08T20:43:58.427Z" host="app.diagrams.net" agent="Mozilla/5.0 (Windows NT 10.0; Win64; x64) AppleWebKit/537.36 (KHTML, like Gecko) Chrome/124.0.0.0 Safari/537.36" etag="ljDpoZm_STYdg1xQy-Ck" version="24.2.1" type="github">
  <diagram id="WI9T0HZ2pTsCkuznbFz-" name="Page-1">
    <mxGraphModel dx="2855" dy="1320" grid="1" gridSize="10" guides="1" tooltips="1" connect="1" arrows="1" fold="1" page="0" pageScale="1" pageWidth="1169" pageHeight="827" math="0" shadow="0">
      <root>
        <mxCell id="0" />
        <mxCell id="1" parent="0" />
        <mxCell id="aVTbyJzQtQtvYW84gZHe-47" value="" style="rounded=1;whiteSpace=wrap;html=1;fillColor=none;dashed=1;" vertex="1" parent="1">
          <mxGeometry x="330" y="220" width="190" height="270" as="geometry" />
        </mxCell>
        <mxCell id="aVTbyJzQtQtvYW84gZHe-4" value="" style="rounded=1;whiteSpace=wrap;html=1;fillColor=none;dashed=1;dashPattern=1 1;" vertex="1" parent="1">
          <mxGeometry x="-280" y="329" width="400" height="120" as="geometry" />
        </mxCell>
        <mxCell id="aVTbyJzQtQtvYW84gZHe-3" value="github" style="verticalLabelPosition=bottom;html=1;verticalAlign=top;align=center;strokeColor=none;fillColor=#00BEF2;shape=mxgraph.azure.github_code;pointerEvents=1;" vertex="1" parent="1">
          <mxGeometry x="-240" y="360.5" width="50" height="50" as="geometry" />
        </mxCell>
        <mxCell id="aVTbyJzQtQtvYW84gZHe-5" value="CI/CD" style="text;html=1;align=center;verticalAlign=middle;whiteSpace=wrap;rounded=0;fontStyle=1" vertex="1" parent="1">
          <mxGeometry x="-110" y="329" width="60" height="30" as="geometry" />
        </mxCell>
        <mxCell id="aVTbyJzQtQtvYW84gZHe-6" value="Azure DevOps" style="image;sketch=0;aspect=fixed;html=1;points=[];align=center;fontSize=12;image=img/lib/mscae/Azure_DevOps.svg;" vertex="1" parent="1">
          <mxGeometry x="-110" y="360.5" width="50" height="50" as="geometry" />
        </mxCell>
        <mxCell id="aVTbyJzQtQtvYW84gZHe-8" value="" style="rounded=1;whiteSpace=wrap;html=1;fillColor=#eeeeee;dashed=1;dashPattern=1 1;strokeColor=#36393d;" vertex="1" parent="1">
          <mxGeometry x="240" y="150" width="360" height="550" as="geometry" />
        </mxCell>
        <mxCell id="aVTbyJzQtQtvYW84gZHe-13" value="" style="image;aspect=fixed;html=1;points=[];align=center;fontSize=12;image=img/lib/azure2/other/Azure_Load_Testing.svg;" vertex="1" parent="1">
          <mxGeometry x="278.28" y="165" width="41.72" height="40" as="geometry" />
        </mxCell>
        <mxCell id="aVTbyJzQtQtvYW84gZHe-14" value="&lt;b&gt;Azure Load Testing Sertvice&lt;/b&gt;" style="text;html=1;align=center;verticalAlign=middle;whiteSpace=wrap;rounded=0;" vertex="1" parent="1">
          <mxGeometry x="330" y="165" width="180" height="30" as="geometry" />
        </mxCell>
        <mxCell id="aVTbyJzQtQtvYW84gZHe-15" value="Jmeter Script" style="verticalLabelPosition=bottom;html=1;verticalAlign=top;align=center;strokeColor=none;fillColor=#00BEF2;shape=mxgraph.azure.script_file;pointerEvents=1;" vertex="1" parent="1">
          <mxGeometry x="260" y="294" width="47.5" height="50" as="geometry" />
        </mxCell>
        <mxCell id="aVTbyJzQtQtvYW84gZHe-17" value="" style="endArrow=classic;html=1;rounded=0;exitX=1;exitY=0.5;exitDx=0;exitDy=0;" edge="1" parent="1">
          <mxGeometry width="50" height="50" relative="1" as="geometry">
            <mxPoint x="307.5" y="317.58" as="sourcePoint" />
            <mxPoint x="340" y="318" as="targetPoint" />
          </mxGeometry>
        </mxCell>
        <mxCell id="aVTbyJzQtQtvYW84gZHe-19" value="" style="endArrow=none;html=1;rounded=0;" edge="1" parent="1">
          <mxGeometry width="50" height="50" relative="1" as="geometry">
            <mxPoint x="340" y="240" as="sourcePoint" />
            <mxPoint x="340" y="400" as="targetPoint" />
          </mxGeometry>
        </mxCell>
        <mxCell id="aVTbyJzQtQtvYW84gZHe-21" value="&lt;font style=&quot;font-size: 10px;&quot;&gt;Test Engine&lt;/font&gt;&lt;div style=&quot;font-size: 10px;&quot;&gt;&lt;font style=&quot;font-size: 10px;&quot;&gt;(Load Testing)&lt;/font&gt;&lt;/div&gt;" style="rounded=1;whiteSpace=wrap;html=1;fillColor=none;" vertex="1" parent="1">
          <mxGeometry x="374" y="223" width="120" height="35" as="geometry" />
        </mxCell>
        <mxCell id="aVTbyJzQtQtvYW84gZHe-22" value="" style="endArrow=classic;html=1;rounded=0;entryX=0;entryY=0.5;entryDx=0;entryDy=0;" edge="1" parent="1" target="aVTbyJzQtQtvYW84gZHe-21">
          <mxGeometry width="50" height="50" relative="1" as="geometry">
            <mxPoint x="340" y="241" as="sourcePoint" />
            <mxPoint x="390" y="191" as="targetPoint" />
          </mxGeometry>
        </mxCell>
        <mxCell id="aVTbyJzQtQtvYW84gZHe-23" value="&lt;font style=&quot;font-size: 10px;&quot;&gt;Test Engine&lt;/font&gt;&lt;div style=&quot;font-size: 10px;&quot;&gt;&lt;font style=&quot;font-size: 10px;&quot;&gt;(Stress Testing)&lt;/font&gt;&lt;/div&gt;" style="rounded=1;whiteSpace=wrap;html=1;fillColor=none;" vertex="1" parent="1">
          <mxGeometry x="374" y="277" width="120" height="35" as="geometry" />
        </mxCell>
        <mxCell id="aVTbyJzQtQtvYW84gZHe-25" value="" style="endArrow=classic;html=1;rounded=0;entryX=0;entryY=0.5;entryDx=0;entryDy=0;" edge="1" parent="1">
          <mxGeometry width="50" height="50" relative="1" as="geometry">
            <mxPoint x="340" y="295" as="sourcePoint" />
            <mxPoint x="374" y="295" as="targetPoint" />
          </mxGeometry>
        </mxCell>
        <mxCell id="aVTbyJzQtQtvYW84gZHe-26" value="" style="endArrow=classic;html=1;rounded=0;entryX=0;entryY=0.5;entryDx=0;entryDy=0;" edge="1" parent="1">
          <mxGeometry width="50" height="50" relative="1" as="geometry">
            <mxPoint x="340" y="339" as="sourcePoint" />
            <mxPoint x="374" y="339" as="targetPoint" />
          </mxGeometry>
        </mxCell>
        <mxCell id="aVTbyJzQtQtvYW84gZHe-27" value="&lt;font style=&quot;font-size: 10px;&quot;&gt;Test Engine&lt;/font&gt;&lt;div style=&quot;font-size: 10px;&quot;&gt;&lt;font style=&quot;font-size: 10px;&quot;&gt;(Soak Testing)&lt;/font&gt;&lt;/div&gt;" style="rounded=1;whiteSpace=wrap;html=1;fillColor=none;" vertex="1" parent="1">
          <mxGeometry x="374" y="331" width="120" height="35" as="geometry" />
        </mxCell>
        <mxCell id="aVTbyJzQtQtvYW84gZHe-28" value="" style="endArrow=classic;html=1;rounded=0;entryX=0.006;entryY=0.519;entryDx=0;entryDy=0;entryPerimeter=0;exitX=0.991;exitY=0.521;exitDx=0;exitDy=0;exitPerimeter=0;" edge="1" parent="1" source="aVTbyJzQtQtvYW84gZHe-3" target="aVTbyJzQtQtvYW84gZHe-6">
          <mxGeometry width="50" height="50" relative="1" as="geometry">
            <mxPoint x="-180" y="398" as="sourcePoint" />
            <mxPoint x="-130" y="348" as="targetPoint" />
          </mxGeometry>
        </mxCell>
        <mxCell id="aVTbyJzQtQtvYW84gZHe-29" value="Test Plans" style="image;sketch=0;aspect=fixed;html=1;points=[];align=center;fontSize=12;image=img/lib/mscae/Azure_Test_Plans.svg;" vertex="1" parent="1">
          <mxGeometry x="50" y="360.5" width="45" height="50" as="geometry" />
        </mxCell>
        <mxCell id="aVTbyJzQtQtvYW84gZHe-33" value="" style="endArrow=classic;html=1;rounded=0;entryX=0.02;entryY=0.649;entryDx=0;entryDy=0;entryPerimeter=0;" edge="1" parent="1">
          <mxGeometry width="50" height="50" relative="1" as="geometry">
            <mxPoint x="160" y="314" as="sourcePoint" />
            <mxPoint x="260.95000000000005" y="314.45" as="targetPoint" />
          </mxGeometry>
        </mxCell>
        <mxCell id="aVTbyJzQtQtvYW84gZHe-38" value="Azure Dashboard" style="shape=image;verticalLabelPosition=bottom;labelBackgroundColor=#ffffff;verticalAlign=top;aspect=fixed;imageAspect=0;image=data:image/svg+xml,PHN2ZyB4bWxuczpjYz0iaHR0cDovL2NyZWF0aXZlY29tbW9ucy5vcmcvbnMjIiB4bWxuczpkYz0iaHR0cDovL3B1cmwub3JnL2RjL2VsZW1lbnRzLzEuMS8iIHhtbG5zOmlua3NjYXBlPSJodHRwOi8vd3d3Lmlua3NjYXBlLm9yZy9uYW1lc3BhY2VzL2lua3NjYXBlIiB4bWxuczpyZGY9Imh0dHA6Ly93d3cudzMub3JnLzE5OTkvMDIvMjItcmRmLXN5bnRheC1ucyMiIHhtbG5zOnNvZGlwb2RpPSJodHRwOi8vc29kaXBvZGkuc291cmNlZm9yZ2UubmV0L0RURC9zb2RpcG9kaS0wLmR0ZCIgeG1sbnM6c3ZnPSJodHRwOi8vd3d3LnczLm9yZy8yMDAwL3N2ZyIgeG1sbnM9Imh0dHA6Ly93d3cudzMub3JnLzIwMDAvc3ZnIiB4bWxuczp4bGluaz0iaHR0cDovL3d3dy53My5vcmcvMTk5OS94bGluayIgdmVyc2lvbj0iMS4xIiBpZD0ic3ZnMjU4MzAiIHg9IjBweCIgeT0iMHB4IiB2aWV3Qm94PSIwIDAgNTMuMjYgMzkiIHN0eWxlPSJlbmFibGUtYmFja2dyb3VuZDpuZXcgMCAwIDUzLjI2IDM5OyIgeG1sOnNwYWNlPSJwcmVzZXJ2ZSI+JiN4YTs8c29kaXBvZGk6bmFtZWR2aWV3IGJvcmRlcmNvbG9yPSIjNjY2NjY2IiBib3JkZXJvcGFjaXR5PSIxIiBmaXQtbWFyZ2luLWJvdHRvbT0iMCIgZml0LW1hcmdpbi1sZWZ0PSIwIiBmaXQtbWFyZ2luLXJpZ2h0PSIwIiBmaXQtbWFyZ2luLXRvcD0iMCIgZ3JpZHRvbGVyYW5jZT0iMTAiIGd1aWRldG9sZXJhbmNlPSIxMCIgaWQ9Im5hbWVkdmlldzI1ODMyIiBpbmtzY2FwZTpjdXJyZW50LWxheWVyPSJzdmcyNTgzMCIgaW5rc2NhcGU6Y3g9IjM1LjUwNDIwOCIgaW5rc2NhcGU6Y3k9IjI2LjAwMjY3MyIgaW5rc2NhcGU6cGFnZW9wYWNpdHk9IjAiIGlua3NjYXBlOnBhZ2VzaGFkb3c9IjIiIGlua3NjYXBlOndpbmRvdy1oZWlnaHQ9IjEwMTciIGlua3NjYXBlOndpbmRvdy1tYXhpbWl6ZWQ9IjEiIGlua3NjYXBlOndpbmRvdy13aWR0aD0iMTkyMCIgaW5rc2NhcGU6d2luZG93LXg9Ii04IiBpbmtzY2FwZTp3aW5kb3cteT0iLTgiIGlua3NjYXBlOnpvb209IjE2LjY3NDc5IiBvYmplY3R0b2xlcmFuY2U9IjEwIiBwYWdlY29sb3I9IiNmZmZmZmYiIHNob3dncmlkPSJmYWxzZSI+JiN4YTsJPC9zb2RpcG9kaTpuYW1lZHZpZXc+JiN4YTs8ZyBpZD0iZzI1ODI4Ij4mI3hhOwk8dGl0bGUgaWQ9InRpdGxlMjU0MzMiPlBhZ2UtMTwvdGl0bGU+JiN4YTsJPGcgaWQ9Imdyb3VwMTY4Ny0xIj4mI3hhOwkJPHRpdGxlIGlkPSJ0aXRsZTI1NDM1Ij5BenVyZSBEYXNoYm9hcmQ8L3RpdGxlPiYjeGE7CQk8ZyBpZD0iZ3JvdXAxNjg4LTIiPiYjeGE7CQkJPHRpdGxlIGlkPSJ0aXRsZTI1NDM3Ij5CdXNpbmVzcyBSdWxlcyBFbmdpbmUuNDAwMjwvdGl0bGU+JiN4YTsJCQk8ZyBpZD0ic2hhcGUxNjg5LTMiPiYjeGE7CQkJCTx0aXRsZSBpZD0idGl0bGUyNTQzOSI+U2hlZXQuMTY4OTwvdGl0bGU+JiN4YTsJCQkJPHBhdGggaWQ9InBhdGgyNTQ0MSIgaW5rc2NhcGU6Y29ubmVjdG9yLWN1cnZhdHVyZT0iMCIgc3R5bGU9ImZpbGwtcnVsZTpldmVub2RkO2NsaXAtcnVsZTpldmVub2RkO2ZpbGw6IzNGNTc2NTsiIGQ9Ik01MS4yMywwICAgICAgQzEuOTcsMCwxLjk3LDAsMS45NywwQzAuMzMsMCwwLDAuMzksMCwyLjAzYzAsMzUsMCwzNSwwLDM1QzAsMzguNjcsMC4zMywzOSwxLjk3LDM5YzQ5LjI2LDAsNDkuMjYsMCw0OS4yNiwwICAgICAgYzEuNywwLDIuMDMtMC4zMywyLjAzLTEuOTdjMC0zNSwwLTM1LDAtMzVDNTMuMjYsMC4zOSw1Mi45MywwLDUxLjIzLDB6Ii8+JiN4YTsJCQk8L2c+JiN4YTsJCQk8ZyBpZD0ic2hhcGUxNjkwLTUiIHRyYW5zZm9ybT0idHJhbnNsYXRlKDQ5LjU3NzUsLTM2LjEwNjEpIj4mI3hhOwkJCQk8dGl0bGUgaWQ9InRpdGxlMjU0NDQiPlNoZWV0LjE2OTA8L3RpdGxlPiYjeGE7CQkJCTxwYXRoIGlkPSJwYXRoMjU0NDYiIGlua3NjYXBlOmNvbm5lY3Rvci1jdXJ2YXR1cmU9IjAiIHN0eWxlPSJmaWxsLXJ1bGU6ZXZlbm9kZDtjbGlwLXJ1bGU6ZXZlbm9kZDtmaWxsOiMzRjU3NjU7IiBkPSIgICAgICBNMi4yNSwzNy44OWMwLDAuNjMtMC41LDEuMTEtMS4xMSwxLjExUzAsMzguNTIsMCwzNy44OWMwLTAuNjEsMC41My0xLjExLDEuMTQtMS4xMVMyLjI1LDM3LjI4LDIuMjUsMzcuODl6Ii8+JiN4YTsJCQk8L2c+JiN4YTsJCTwvZz4mI3hhOwkJPGcgaWQ9InNoYXBlMTY5MS03IiB0cmFuc2Zvcm09InRyYW5zbGF0ZSgxLjMyMjI2LC0xLjgwOTc1KSI+JiN4YTsJCQk8dGl0bGUgaWQ9InRpdGxlMjU0NTAiPkMjLjUyNDwvdGl0bGU+JiN4YTsJCQk8cGF0aCBpZD0icGF0aDI1NDUyIiBpbmtzY2FwZTpjb25uZWN0b3ItY3VydmF0dXJlPSIwIiBzdHlsZT0iZmlsbC1ydWxlOmV2ZW5vZGQ7Y2xpcC1ydWxlOmV2ZW5vZGQ7ZmlsbDojMDBCMEYwOyIgZD0iTTAsNy43M1YzOSAgICAgaDUwLjI4VjcuNzNIMHoiLz4mI3hhOwkJPC9nPiYjeGE7CQk8ZyBpZD0iZ3JvdXAxNjkyLTkiIHRyYW5zZm9ybT0idHJhbnNsYXRlKDIuMjA3MTgsLTE4LjM3NjQpIj4mI3hhOwkJCTx0aXRsZSBpZD0idGl0bGUyNTQ1NSI+U2hlZXQuMTY5MjwvdGl0bGU+JiN4YTsJCQk8ZyBpZD0ic2hhcGUxNjkzLTEwIj4mI3hhOwkJCQk8dGl0bGUgaWQ9InRpdGxlMjU0NTciPlNoZWV0LjE2OTM8L3RpdGxlPiYjeGE7CQkJCTxwYXRoIGlkPSJwYXRoMjU0NTkiIGlua3NjYXBlOmNvbm5lY3Rvci1jdXJ2YXR1cmU9IjAiIHN0eWxlPSJmaWxsLXJ1bGU6ZXZlbm9kZDtjbGlwLXJ1bGU6ZXZlbm9kZDtmaWxsOiNGRkZGRkY7IiBkPSIgICAgICBNNS43MiwyNy41NEMyLjU2LDI3LjU0LDAsMzAuMTEsMCwzMy4yN0MwLDM2LjQ0LDIuNTYsMzksNS43MiwzOWMzLjE3LDAsNS43Mi0yLjU2LDUuNzItNS43M0MxMS40NCwzMC4xMSw4Ljg5LDI3LjU0LDUuNzIsMjcuNTQgICAgICB6IE01LjcyLDM4LjIzQzMsMzguMjMsMC43NiwzNiwwLjc2LDMzLjI3YzAtMi43MiwyLjI0LTQuOTYsNC45Ni00Ljk2YzIuNzMsMCw0Ljk2LDIuMjQsNC45Niw0Ljk2ICAgICAgQzEwLjY4LDM2LjAzLDguNDUsMzguMjMsNS43MiwzOC4yM3oiLz4mI3hhOwkJCTwvZz4mI3hhOwkJCTxnIGlkPSJzaGFwZTE2OTQtMTIiIHRyYW5zZm9ybT0idHJhbnNsYXRlKDQuODg2MDQsLTQuODQzODYpIj4mI3hhOwkJCQk8dGl0bGUgaWQ9InRpdGxlMjU0NjIiPlNoZWV0LjE2OTQ8L3RpdGxlPiYjeGE7CQkJCTxwYXRoIGlkPSJwYXRoMjU0NjQiIGlua3NjYXBlOmNvbm5lY3Rvci1jdXJ2YXR1cmU9IjAiIHN0eWxlPSJmaWxsLXJ1bGU6ZXZlbm9kZDtjbGlwLXJ1bGU6ZXZlbm9kZDtmaWxsOiNGRkZGRkY7IiBkPSIgICAgICBNMi44NCwzNi4wMWwtMi4wMiwxLjI3QzAuMzYsMzcuMywwLDM3LjY2LDAsMzguMTRDMCwzOC42MSwwLjM4LDM5LDAuODYsMzljMC40NSwwLDAuODItMC4zNiwwLjgzLTAuODNsMS4yNC0yLjA2ICAgICAgQzIuOTgsMzYuMDYsMi45LDM1Ljk4LDIuODQsMzYuMDF6Ii8+JiN4YTsJCQk8L2c+JiN4YTsJCQk8ZyBpZD0ic2hhcGUxNjk1LTE0IiB0cmFuc2Zvcm09InRyYW5zbGF0ZSg1LjMzODksLTkuMDc5MjYpIj4mI3hhOwkJCQk8dGl0bGUgaWQ9InRpdGxlMjU0NjciPlNoZWV0LjE2OTU8L3RpdGxlPiYjeGE7CQkJCTxwYXRoIGlkPSJwYXRoMjU0NjkiIGlua3NjYXBlOmNvbm5lY3Rvci1jdXJ2YXR1cmU9IjAiIHN0eWxlPSJmaWxsLXJ1bGU6ZXZlbm9kZDtjbGlwLXJ1bGU6ZXZlbm9kZDtmaWxsOiNGRkZGRkY7IiBkPSIgICAgICBNMC4zOCwzOC45N2MwLjE0LDAsMC4yNSwwLDAuMzgsMC4wM3YtMi4xOUgwVjM5QzAuMTQsMzguOTcsMC4yNSwzOC45NywwLjM4LDM4Ljk3eiIvPiYjeGE7CQkJPC9nPiYjeGE7CQkJPGcgaWQ9InNoYXBlMTY5Ni0xNiIgdHJhbnNmb3JtPSJ0cmFuc2xhdGUoMS41NDkyMywtNy44Mzg0NikiPiYjeGE7CQkJCTx0aXRsZSBpZD0idGl0bGUyNTQ3MiI+U2hlZXQuMTY5NjwvdGl0bGU+JiN4YTsJCQkJPHBhdGggaWQ9InBhdGgyNTQ3NCIgaW5rc2NhcGU6Y29ubmVjdG9yLWN1cnZhdHVyZT0iMCIgc3R5bGU9ImZpbGwtcnVsZTpldmVub2RkO2NsaXAtcnVsZTpldmVub2RkO2ZpbGw6I0ZGRkZGRjsiIGQ9IiAgICAgIE0yLjA3LDM4LjQ2bC0xLjUzLTEuNTVMMCwzNy40NUwxLjU1LDM5QzEuNjksMzguODEsMS44OCwzOC42MywyLjA3LDM4LjQ2eiIvPiYjeGE7CQkJPC9nPiYjeGE7CQkJPGcgaWQ9InNoYXBlMTY5Ny0xOCIgdHJhbnNmb3JtPSJ0cmFuc2xhdGUoNy44MTc2NywtNy44Mzg0NikiPiYjeGE7CQkJCTx0aXRsZSBpZD0idGl0bGUyNTQ3NyI+U2hlZXQuMTY5NzwvdGl0bGU+JiN4YTsJCQkJPHBhdGggaWQ9InBhdGgyNTQ3OSIgaW5rc2NhcGU6Y29ubmVjdG9yLWN1cnZhdHVyZT0iMCIgc3R5bGU9ImZpbGwtcnVsZTpldmVub2RkO2NsaXAtcnVsZTpldmVub2RkO2ZpbGw6I0ZGRkZGRjsiIGQ9Ik0wLjU0LDM5ICAgICAgbDEuNTUtMS41NWwtMC41NC0wLjU0TDAsMzguNDZDMC4xOSwzOC42MSwwLjM4LDM4LjgxLDAuNTQsMzl6Ii8+JiN4YTsJCQk8L2c+JiN4YTsJCQk8ZyBpZD0ic2hhcGUxNjk4LTIwIiB0cmFuc2Zvcm09InRyYW5zbGF0ZSg5LjA4MDg5LC01LjM0NDk1KSI+JiN4YTsJCQkJPHRpdGxlIGlkPSJ0aXRsZTI1NDgyIj5TaGVldC4xNjk4PC90aXRsZT4mI3hhOwkJCQk8cGF0aCBpZD0icGF0aDI1NDg0IiBpbmtzY2FwZTpjb25uZWN0b3ItY3VydmF0dXJlPSIwIiBzdHlsZT0iZmlsbC1ydWxlOmV2ZW5vZGQ7Y2xpcC1ydWxlOmV2ZW5vZGQ7ZmlsbDojRkZGRkZGOyIgZD0iTTAsMzguMjMgICAgICBjMC4wMiwwLjE1LDAuMDIsMC4yNSwwLjAyLDAuMzhjMCwwLjE1LDAsMC4yNS0wLjAyLDAuMzloMi4xN3YtMC43N0gweiIvPiYjeGE7CQkJPC9nPiYjeGE7CQkJPGcgaWQ9InNoYXBlMTY5OS0yMiIgdHJhbnNmb3JtPSJ0cmFuc2xhdGUoMC4xOTA2NzUsLTUuMzQ0OTUpIj4mI3hhOwkJCQk8dGl0bGUgaWQ9InRpdGxlMjU0ODciPlNoZWV0LjE2OTk8L3RpdGxlPiYjeGE7CQkJCTxwYXRoIGlkPSJwYXRoMjU0ODkiIGlua3NjYXBlOmNvbm5lY3Rvci1jdXJ2YXR1cmU9IjAiIHN0eWxlPSJmaWxsLXJ1bGU6ZXZlbm9kZDtjbGlwLXJ1bGU6ZXZlbm9kZDtmaWxsOiNGRkZGRkY7IiBkPSIgICAgICBNMi4xNiwzOC42MWMwLTAuMTMsMC0wLjIzLDAuMDItMC4zOEgwVjM5aDIuMThDMi4xNiwzOC44NiwyLjE2LDM4Ljc2LDIuMTYsMzguNjF6Ii8+JiN4YTsJCQk8L2c+JiN4YTsJCQk8ZyBpZD0ic2hhcGUxNzAwLTI0IiB0cmFuc2Zvcm09InRyYW5zbGF0ZSg0LjM4NTUyLC0yLjY3MjQ4KSI+JiN4YTsJCQkJPHRpdGxlIGlkPSJ0aXRsZTI1NDkyIj5TaGVldC4xNzAwPC90aXRsZT4mI3hhOwkJCQk8cGF0aCBpZD0icGF0aDI1NDk0IiBpbmtzY2FwZTpjb25uZWN0b3ItY3VydmF0dXJlPSIwIiBzdHlsZT0iZmlsbC1ydWxlOmV2ZW5vZGQ7Y2xpcC1ydWxlOmV2ZW5vZGQ7ZmlsbDojRkZGRkZGOyIgZD0iTTAsMzguMjMgICAgICBWMzloMi42N3YtMC43N0gweiIvPiYjeGE7CQkJPC9nPiYjeGE7CQk8L2c+JiN4YTsJCTxnIGlkPSJncm91cDE3MDEtMjYiIHRyYW5zZm9ybT0idHJhbnNsYXRlKDE2LjE1MTgsLTE4LjM3NjQpIj4mI3hhOwkJCTx0aXRsZSBpZD0idGl0bGUyNTQ5OCI+U2hlZXQuMTcwMTwvdGl0bGU+JiN4YTsJCQk8ZyBpZD0ic2hhcGUxNzAyLTI3IiB0cmFuc2Zvcm09InRyYW5zbGF0ZSgwLjczODI0MSwtMC45NzQ3NjMpIj4mI3hhOwkJCQk8dGl0bGUgaWQ9InRpdGxlMjU1MDAiPlNoZWV0LjE3MDI8L3RpdGxlPiYjeGE7CQkJCTxwYXRoIGlkPSJwYXRoMjU1MDIiIGlua3NjYXBlOmNvbm5lY3Rvci1jdXJ2YXR1cmU9IjAiIHN0eWxlPSJmaWxsLXJ1bGU6ZXZlbm9kZDtjbGlwLXJ1bGU6ZXZlbm9kZDtmaWxsOiNGRkZGRkY7IiBkPSJNMCwzMy42MyAgICAgIFYzOWgxLjcydi01LjM3SDB6Ii8+JiN4YTsJCQk8L2c+JiN4YTsJCQk8ZyBpZD0ic2hhcGUxNzAzLTI5IiB0cmFuc2Zvcm09InRyYW5zbGF0ZSgyLjk1Mjk2LC0wLjk3NDc2MykiPiYjeGE7CQkJCTx0aXRsZSBpZD0idGl0bGUyNTUwNSI+U2hlZXQuMTcwMzwvdGl0bGU+JiN4YTsJCQkJPHBhdGggaWQ9InBhdGgyNTUwNyIgaW5rc2NhcGU6Y29ubmVjdG9yLWN1cnZhdHVyZT0iMCIgc3R5bGU9ImZpbGwtcnVsZTpldmVub2RkO2NsaXAtcnVsZTpldmVub2RkO2ZpbGw6I0ZGRkZGRjsiIGQ9Ik0wLDM1LjgzICAgICAgVjM5aDEuNzJ2LTMuMTdIMHoiLz4mI3hhOwkJCTwvZz4mI3hhOwkJCTxnIGlkPSJzaGFwZTE3MDQtMzEiIHRyYW5zZm9ybT0idHJhbnNsYXRlKDcuMzgyNDEsLTAuOTc0NzYzKSI+JiN4YTsJCQkJPHRpdGxlIGlkPSJ0aXRsZTI1NTEwIj5TaGVldC4xNzA0PC90aXRsZT4mI3hhOwkJCQk8cGF0aCBpZD0icGF0aDI1NTEyIiBpbmtzY2FwZTpjb25uZWN0b3ItY3VydmF0dXJlPSIwIiBzdHlsZT0iZmlsbC1ydWxlOmV2ZW5vZGQ7Y2xpcC1ydWxlOmV2ZW5vZGQ7ZmlsbDojRkZGRkZGOyIgZD0iTTAsMzIuMTcgICAgICBWMzloMS43MnYtNi44M0gweiIvPiYjeGE7CQkJPC9nPiYjeGE7CQkJPGcgaWQ9InNoYXBlMTcwNS0zMyIgdHJhbnNmb3JtPSJ0cmFuc2xhdGUoOS41OTcxNCwtMC45NzQ3NjMpIj4mI3hhOwkJCQk8dGl0bGUgaWQ9InRpdGxlMjU1MTUiPlNoZWV0LjE3MDU8L3RpdGxlPiYjeGE7CQkJCTxwYXRoIGlkPSJwYXRoMjU1MTciIGlua3NjYXBlOmNvbm5lY3Rvci1jdXJ2YXR1cmU9IjAiIHN0eWxlPSJmaWxsLXJ1bGU6ZXZlbm9kZDtjbGlwLXJ1bGU6ZXZlbm9kZDtmaWxsOiNGRkZGRkY7IiBkPSJNMCwzNS4xICAgICAgVjM5aDEuNzJ2LTMuOUgweiIvPiYjeGE7CQkJPC9nPiYjeGE7CQkJPGcgaWQ9InNoYXBlMTcwNi0zNSIgdHJhbnNmb3JtPSJ0cmFuc2xhdGUoNS4xNjc2OSwtMC45NzQ3NjMpIj4mI3hhOwkJCQk8dGl0bGUgaWQ9InRpdGxlMjU1MjAiPlNoZWV0LjE3MDY8L3RpdGxlPiYjeGE7CQkJCTxwYXRoIGlkPSJwYXRoMjU1MjIiIGlua3NjYXBlOmNvbm5lY3Rvci1jdXJ2YXR1cmU9IjAiIHN0eWxlPSJmaWxsLXJ1bGU6ZXZlbm9kZDtjbGlwLXJ1bGU6ZXZlbm9kZDtmaWxsOiNGRkZGRkY7IiBkPSJNMCwzMC45NSAgICAgIFYzOWgxLjcydi04LjA1SDB6Ii8+JiN4YTsJCQk8L2c+JiN4YTsJCQk8ZyBpZD0ic2hhcGUxNzA3LTM3Ij4mI3hhOwkJCQk8dGl0bGUgaWQ9InRpdGxlMjU1MjUiPlNoZWV0LjE3MDc8L3RpdGxlPiYjeGE7CQkJCTxwYXRoIGlkPSJwYXRoMjU1MjciIGlua3NjYXBlOmNvbm5lY3Rvci1jdXJ2YXR1cmU9IjAiIHN0eWxlPSJmaWxsLXJ1bGU6ZXZlbm9kZDtjbGlwLXJ1bGU6ZXZlbm9kZDtmaWxsOiNGRkZGRkY7IiBkPSIgICAgICBNMC40OSwzOC41MVYyNy41NEgwVjM5aDEyLjA2di0wLjQ5SDAuNDl6Ii8+JiN4YTsJCQk8L2c+JiN4YTsJCTwvZz4mI3hhOwkJPGcgaWQ9Imdyb3VwMTcwOC0zOSIgdHJhbnNmb3JtPSJ0cmFuc2xhdGUoMzAuNzE0LC0xOC4xMTc1KSI+JiN4YTsJCQk8dGl0bGUgaWQ9InRpdGxlMjU1MzEiPlNoZWV0LjE3MDg8L3RpdGxlPiYjeGE7CQkJPGcgaWQ9InNoYXBlMTcwOS00MCIgdHJhbnNmb3JtPSJ0cmFuc2xhdGUoMC45ODQzMjIsLTAuOTc2MDM0KSI+JiN4YTsJCQkJPHRpdGxlIGlkPSJ0aXRsZTI1NTMzIj5TaGVldC4xNzA5PC90aXRsZT4mI3hhOwkJCQk8cGF0aCBpZD0icGF0aDI1NTM1IiBpbmtzY2FwZTpjb25uZWN0b3ItY3VydmF0dXJlPSIwIiBzdHlsZT0iZmlsbC1ydWxlOmV2ZW5vZGQ7Y2xpcC1ydWxlOmV2ZW5vZGQ7ZmlsbDojRkZGRkZGOyIgZD0iICAgICAgTTguMiwzMy43OGwtMy40LDQuMjRMMiwzNS42bC0xLjkyLDEuNjNMMCwzNy4xNFYzOWgxMS4wN3YtMy41OUw4LjIsMzMuNzh6Ii8+JiN4YTsJCQk8L2c+JiN4YTsJCQk8ZyBpZD0ic2hhcGUxNzEwLTQyIiB0cmFuc2Zvcm09InRyYW5zbGF0ZSgwLjk4NDMyMiwtMy4zMzk4NykiPiYjeGE7CQkJCTx0aXRsZSBpZD0idGl0bGUyNTUzOCI+U2hlZXQuMTcxMDwvdGl0bGU+JiN4YTsJCQkJPHBhdGggaWQ9InBhdGgyNTU0MCIgaW5rc2NhcGU6Y29ubmVjdG9yLWN1cnZhdHVyZT0iMCIgc3R5bGU9ImZpbGwtcnVsZTpldmVub2RkO2NsaXAtcnVsZTpldmVub2RkO2ZpbGw6I0ZGRkZGRjsiIGQ9IiAgICAgIE03Ljk4LDMxLjExTDQsMzUuNzJsLTMuMTEtMC44NEwwLDM2LjE0djIuMzhsMi0xLjY5TDQuNTEsMzlsMy4zMy00LjExbDMuMjMsMS44OHYtNC45Nkw3Ljk4LDMxLjExeiIvPiYjeGE7CQkJPC9nPiYjeGE7CQkJPGcgaWQ9InNoYXBlMTcxMS00NCI+JiN4YTsJCQkJPHRpdGxlIGlkPSJ0aXRsZTI1NTQzIj5TaGVldC4xNzExPC90aXRsZT4mI3hhOwkJCQk8cGF0aCBpZD0icGF0aDI1NTQ1IiBpbmtzY2FwZTpjb25uZWN0b3ItY3VydmF0dXJlPSIwIiBzdHlsZT0iZmlsbC1ydWxlOmV2ZW5vZGQ7Y2xpcC1ydWxlOmV2ZW5vZGQ7ZmlsbDojRkZGRkZGOyIgZD0iICAgICAgTTAuNDksMzguNTFWMjcuMjhIMFYzOWgxMi4wNnYtMC40OUgwLjQ5eiIvPiYjeGE7CQkJPC9nPiYjeGE7CQk8L2c+JiN4YTsJCTxnIGlkPSJncm91cDE3MTItNDYiIHRyYW5zZm9ybT0idHJhbnNsYXRlKDQ0LjgyODQsLTE4LjExNzUpIj4mI3hhOwkJCTx0aXRsZSBpZD0idGl0bGUyNTU0OSI+U2hlZXQuMTcxMjwvdGl0bGU+JiN4YTsJCQk8ZyBpZD0ic2hhcGUxNzEzLTQ3IiB0cmFuc2Zvcm09InRyYW5zbGF0ZSgxLjI3NzI0LC0wLjAyMzk5MTIpIj4mI3hhOwkJCQk8dGl0bGUgaWQ9InRpdGxlMjU1NTEiPlNoZWV0LjE3MTM8L3RpdGxlPiYjeGE7CQkJCSYjeGE7CQkJCQk8cGF0aCBpZD0icGF0aDI1NTUzIiBpbmtzY2FwZTpjb25uZWN0b3ItY3VydmF0dXJlPSIwIiBzdHlsZT0iZmlsbC1ydWxlOmV2ZW5vZGQ7Y2xpcC1ydWxlOmV2ZW5vZGQ7ZmlsbDojRkZGRkZGO3N0cm9rZTojRkZGRkZGO3N0cm9rZS13aWR0aDowLjI1O3N0cm9rZS1saW5lY2FwOnJvdW5kO3N0cm9rZS1saW5lam9pbjpyb3VuZDtzdHJva2UtbWl0ZXJsaW1pdDozOyIgZD0iICAgICAgTTAsMjcuMzRWMzloMC4zMlYyNy4zNEgweiIvPiYjeGE7CQkJPC9nPiYjeGE7CQkJPGcgaWQ9InNoYXBlMTcxNC00OSIgdHJhbnNmb3JtPSJ0cmFuc2xhdGUoMS4yNzcyNCwtMC4wMjM5OTEyKSI+JiN4YTsJCQkJPHRpdGxlIGlkPSJ0aXRsZTI1NTU2Ij5TaGVldC4xNzE0PC90aXRsZT4mI3hhOwkJCQkmI3hhOwkJCQkJPHBhdGggaWQ9InBhdGgyNTU1OCIgaW5rc2NhcGU6Y29ubmVjdG9yLWN1cnZhdHVyZT0iMCIgc3R5bGU9ImZpbGw6bm9uZTtzdHJva2U6I0ZGRkZGRjtzdHJva2Utd2lkdGg6MC4yNTtzdHJva2UtbGluZWNhcDpyb3VuZDtzdHJva2UtbGluZWpvaW46cm91bmQ7c3Ryb2tlLW1pdGVybGltaXQ6MzsiIGQ9IiAgICAgIE0wLDM5aDAuMzJWMjcuMzRIMFYzOUwwLDM5Ii8+JiN4YTsJCQk8L2c+JiN4YTsJCQk8ZyBpZD0ic2hhcGUxNzE1LTUyIiB0cmFuc2Zvcm09InRyYW5zbGF0ZSg0LjUxMjExLC0wLjAzNTk4NykiPiYjeGE7CQkJCTx0aXRsZSBpZD0idGl0bGUyNTU2MSI+U2hlZXQuMTcxNTwvdGl0bGU+JiN4YTsJCQkJJiN4YTsJCQkJCTxwYXRoIGlkPSJwYXRoMjU1NjMiIGlua3NjYXBlOmNvbm5lY3Rvci1jdXJ2YXR1cmU9IjAiIHN0eWxlPSJmaWxsOm5vbmU7c3Ryb2tlOiNGRkZGRkY7c3Ryb2tlLXdpZHRoOjAuMjU7c3Ryb2tlLWxpbmVjYXA6cm91bmQ7c3Ryb2tlLWxpbmVqb2luOnJvdW5kO3N0cm9rZS1taXRlcmxpbWl0OjM7IiBkPSIgICAgICBNMCwyNy40VjM5Ii8+JiN4YTsJCQk8L2c+JiN4YTsJCQk8ZyBpZD0ic2hhcGUxNzE2LTU1IiB0cmFuc2Zvcm09InRyYW5zbGF0ZSgzLjg5MTQsLTExLjYzNTgpIj4mI3hhOwkJCQk8dGl0bGUgaWQ9InRpdGxlMjU1NjYiPlNoZWV0LjE3MTY8L3RpdGxlPiYjeGE7CQkJCSYjeGE7CQkJCQk8cGF0aCBpZD0icGF0aDI1NTY4IiBpbmtzY2FwZTpjb25uZWN0b3ItY3VydmF0dXJlPSIwIiBzdHlsZT0iZmlsbDpub25lO3N0cm9rZTojRkZGRkZGO3N0cm9rZS13aWR0aDowLjI1O3N0cm9rZS1saW5lY2FwOnJvdW5kO3N0cm9rZS1saW5lam9pbjpyb3VuZDtzdHJva2UtbWl0ZXJsaW1pdDozOyIgZD0iICAgICAgTTEuMjEsMzlIMCIvPiYjeGE7CQkJPC9nPiYjeGE7CQkJPGcgaWQ9InNoYXBlMTcxNy01OCIgdHJhbnNmb3JtPSJ0cmFuc2xhdGUoMy44OTE0LC0xMC45MDQpIj4mI3hhOwkJCQk8dGl0bGUgaWQ9InRpdGxlMjU1NzEiPlNoZWV0LjE3MTc8L3RpdGxlPiYjeGE7CQkJCSYjeGE7CQkJCQk8cGF0aCBpZD0icGF0aDI1NTczIiBpbmtzY2FwZTpjb25uZWN0b3ItY3VydmF0dXJlPSIwIiBzdHlsZT0iZmlsbDpub25lO3N0cm9rZTojRkZGRkZGO3N0cm9rZS13aWR0aDowLjI1O3N0cm9rZS1saW5lY2FwOnJvdW5kO3N0cm9rZS1saW5lam9pbjpyb3VuZDtzdHJva2UtbWl0ZXJsaW1pdDozOyIgZD0iICAgICAgTTEuMjEsMzlIMCIvPiYjeGE7CQkJPC9nPiYjeGE7CQkJPGcgaWQ9InNoYXBlMTcxOC02MSIgdHJhbnNmb3JtPSJ0cmFuc2xhdGUoMy44OTE0LC0xMC4xODQzKSI+JiN4YTsJCQkJPHRpdGxlIGlkPSJ0aXRsZTI1NTc2Ij5TaGVldC4xNzE4PC90aXRsZT4mI3hhOwkJCQkmI3hhOwkJCQkJPHBhdGggaWQ9InBhdGgyNTU3OCIgaW5rc2NhcGU6Y29ubmVjdG9yLWN1cnZhdHVyZT0iMCIgc3R5bGU9ImZpbGw6bm9uZTtzdHJva2U6I0ZGRkZGRjtzdHJva2Utd2lkdGg6MC4yNTtzdHJva2UtbGluZWNhcDpyb3VuZDtzdHJva2UtbGluZWpvaW46cm91bmQ7c3Ryb2tlLW1pdGVybGltaXQ6MzsiIGQ9IiAgICAgIE0xLjIxLDM5SDAiLz4mI3hhOwkJCTwvZz4mI3hhOwkJCTxnIGlkPSJzaGFwZTE3MTktNjQiIHRyYW5zZm9ybT0idHJhbnNsYXRlKDMuODkxNCwtOS40NTI1NSkiPiYjeGE7CQkJCTx0aXRsZSBpZD0idGl0bGUyNTU4MSI+U2hlZXQuMTcxOTwvdGl0bGU+JiN4YTsJCQkJJiN4YTsJCQkJCTxwYXRoIGlkPSJwYXRoMjU1ODMiIGlua3NjYXBlOmNvbm5lY3Rvci1jdXJ2YXR1cmU9IjAiIHN0eWxlPSJmaWxsOm5vbmU7c3Ryb2tlOiNGRkZGRkY7c3Ryb2tlLXdpZHRoOjAuMjU7c3Ryb2tlLWxpbmVjYXA6cm91bmQ7c3Ryb2tlLWxpbmVqb2luOnJvdW5kO3N0cm9rZS1taXRlcmxpbWl0OjM7IiBkPSIgICAgICBNMS4yMSwzOUgwIi8+JiN4YTsJCQk8L2c+JiN4YTsJCQk8ZyBpZD0ic2hhcGUxNzIwLTY3IiB0cmFuc2Zvcm09InRyYW5zbGF0ZSgzLjg5MTQsLTguNzMyODIpIj4mI3hhOwkJCQk8dGl0bGUgaWQ9InRpdGxlMjU1ODYiPlNoZWV0LjE3MjA8L3RpdGxlPiYjeGE7CQkJCSYjeGE7CQkJCQk8cGF0aCBpZD0icGF0aDI1NTg4IiBpbmtzY2FwZTpjb25uZWN0b3ItY3VydmF0dXJlPSIwIiBzdHlsZT0iZmlsbDpub25lO3N0cm9rZTojRkZGRkZGO3N0cm9rZS13aWR0aDowLjI1O3N0cm9rZS1saW5lY2FwOnJvdW5kO3N0cm9rZS1saW5lam9pbjpyb3VuZDtzdHJva2UtbWl0ZXJsaW1pdDozOyIgZD0iICAgICAgTTEuMjEsMzlIMCIvPiYjeGE7CQkJPC9nPiYjeGE7CQkJPGcgaWQ9InNoYXBlMTcyMS03MCIgdHJhbnNmb3JtPSJ0cmFuc2xhdGUoMy44OTE0LC04LjAwMTA4KSI+JiN4YTsJCQkJPHRpdGxlIGlkPSJ0aXRsZTI1NTkxIj5TaGVldC4xNzIxPC90aXRsZT4mI3hhOwkJCQkmI3hhOwkJCQkJPHBhdGggaWQ9InBhdGgyNTU5MyIgaW5rc2NhcGU6Y29ubmVjdG9yLWN1cnZhdHVyZT0iMCIgc3R5bGU9ImZpbGw6bm9uZTtzdHJva2U6I0ZGRkZGRjtzdHJva2Utd2lkdGg6MC4yNTtzdHJva2UtbGluZWNhcDpyb3VuZDtzdHJva2UtbGluZWpvaW46cm91bmQ7c3Ryb2tlLW1pdGVybGltaXQ6MzsiIGQ9IiAgICAgIE0xLjIxLDM5SDAiLz4mI3hhOwkJCTwvZz4mI3hhOwkJCTxnIGlkPSJzaGFwZTE3MjItNzMiIHRyYW5zZm9ybT0idHJhbnNsYXRlKDMuODkxNCwtNy4yODEzNCkiPiYjeGE7CQkJCTx0aXRsZSBpZD0idGl0bGUyNTU5NiI+U2hlZXQuMTcyMjwvdGl0bGU+JiN4YTsJCQkJJiN4YTsJCQkJCTxwYXRoIGlkPSJwYXRoMjU1OTgiIGlua3NjYXBlOmNvbm5lY3Rvci1jdXJ2YXR1cmU9IjAiIHN0eWxlPSJmaWxsOm5vbmU7c3Ryb2tlOiNGRkZGRkY7c3Ryb2tlLXdpZHRoOjAuMjU7c3Ryb2tlLWxpbmVjYXA6cm91bmQ7c3Ryb2tlLWxpbmVqb2luOnJvdW5kO3N0cm9rZS1taXRlcmxpbWl0OjM7IiBkPSIgICAgICBNMS4yMSwzOUgwIi8+JiN4YTsJCQk8L2c+JiN4YTsJCQk8ZyBpZD0ic2hhcGUxNzIzLTc2IiB0cmFuc2Zvcm09InRyYW5zbGF0ZSgzLjg5MTQsLTYuNTM3NjIpIj4mI3hhOwkJCQk8dGl0bGUgaWQ9InRpdGxlMjU2MDEiPlNoZWV0LjE3MjM8L3RpdGxlPiYjeGE7CQkJCSYjeGE7CQkJCQk8cGF0aCBpZD0icGF0aDI1NjAzIiBpbmtzY2FwZTpjb25uZWN0b3ItY3VydmF0dXJlPSIwIiBzdHlsZT0iZmlsbDpub25lO3N0cm9rZTojRkZGRkZGO3N0cm9rZS13aWR0aDowLjI1O3N0cm9rZS1saW5lY2FwOnJvdW5kO3N0cm9rZS1saW5lam9pbjpyb3VuZDtzdHJva2UtbWl0ZXJsaW1pdDozOyIgZD0iICAgICAgTTEuMjEsMzlIMCIvPiYjeGE7CQkJPC9nPiYjeGE7CQkJPGcgaWQ9InNoYXBlMTcyNC03OSIgdHJhbnNmb3JtPSJ0cmFuc2xhdGUoMy44OTE0LC01LjgwNTg4KSI+JiN4YTsJCQkJPHRpdGxlIGlkPSJ0aXRsZTI1NjA2Ij5TaGVldC4xNzI0PC90aXRsZT4mI3hhOwkJCQkmI3hhOwkJCQkJPHBhdGggaWQ9InBhdGgyNTYwOCIgaW5rc2NhcGU6Y29ubmVjdG9yLWN1cnZhdHVyZT0iMCIgc3R5bGU9ImZpbGw6bm9uZTtzdHJva2U6I0ZGRkZGRjtzdHJva2Utd2lkdGg6MC4yNTtzdHJva2UtbGluZWNhcDpyb3VuZDtzdHJva2UtbGluZWpvaW46cm91bmQ7c3Ryb2tlLW1pdGVybGltaXQ6MzsiIGQ9IiAgICAgIE0xLjIxLDM5SDAiLz4mI3hhOwkJCTwvZz4mI3hhOwkJCTxnIGlkPSJzaGFwZTE3MjUtODIiIHRyYW5zZm9ybT0idHJhbnNsYXRlKDMuODkxNCwtNS4wODYxNCkiPiYjeGE7CQkJCTx0aXRsZSBpZD0idGl0bGUyNTYxMSI+U2hlZXQuMTcyNTwvdGl0bGU+JiN4YTsJCQkJJiN4YTsJCQkJCTxwYXRoIGlkPSJwYXRoMjU2MTMiIGlua3NjYXBlOmNvbm5lY3Rvci1jdXJ2YXR1cmU9IjAiIHN0eWxlPSJmaWxsOm5vbmU7c3Ryb2tlOiNGRkZGRkY7c3Ryb2tlLXdpZHRoOjAuMjU7c3Ryb2tlLWxpbmVjYXA6cm91bmQ7c3Ryb2tlLWxpbmVqb2luOnJvdW5kO3N0cm9rZS1taXRlcmxpbWl0OjM7IiBkPSIgICAgICBNMS4yMSwzOUgwIi8+JiN4YTsJCQk8L2c+JiN4YTsJCQk8ZyBpZD0ic2hhcGUxNzI2LTg1IiB0cmFuc2Zvcm09InRyYW5zbGF0ZSgzLjg5MTQsLTQuMzU0NDEpIj4mI3hhOwkJCQk8dGl0bGUgaWQ9InRpdGxlMjU2MTYiPlNoZWV0LjE3MjY8L3RpdGxlPiYjeGE7CQkJCSYjeGE7CQkJCQk8cGF0aCBpZD0icGF0aDI1NjE4IiBpbmtzY2FwZTpjb25uZWN0b3ItY3VydmF0dXJlPSIwIiBzdHlsZT0iZmlsbDpub25lO3N0cm9rZTojRkZGRkZGO3N0cm9rZS13aWR0aDowLjI1O3N0cm9rZS1saW5lY2FwOnJvdW5kO3N0cm9rZS1saW5lam9pbjpyb3VuZDtzdHJva2UtbWl0ZXJsaW1pdDozOyIgZD0iICAgICAgTTEuMjEsMzlIMCIvPiYjeGE7CQkJPC9nPiYjeGE7CQkJPGcgaWQ9InNoYXBlMTcyNy04OCIgdHJhbnNmb3JtPSJ0cmFuc2xhdGUoMy44OTE0LC0zLjYyMjY4KSI+JiN4YTsJCQkJPHRpdGxlIGlkPSJ0aXRsZTI1NjIxIj5TaGVldC4xNzI3PC90aXRsZT4mI3hhOwkJCQkmI3hhOwkJCQkJPHBhdGggaWQ9InBhdGgyNTYyMyIgaW5rc2NhcGU6Y29ubmVjdG9yLWN1cnZhdHVyZT0iMCIgc3R5bGU9ImZpbGw6bm9uZTtzdHJva2U6I0ZGRkZGRjtzdHJva2Utd2lkdGg6MC4yNTtzdHJva2UtbGluZWNhcDpyb3VuZDtzdHJva2UtbGluZWpvaW46cm91bmQ7c3Ryb2tlLW1pdGVybGltaXQ6MzsiIGQ9IiAgICAgIE0xLjIxLDM5SDAiLz4mI3hhOwkJCTwvZz4mI3hhOwkJCTxnIGlkPSJzaGFwZTE3MjgtOTEiIHRyYW5zZm9ybT0idHJhbnNsYXRlKDMuODkxNCwtMi45MDI5NCkiPiYjeGE7CQkJCTx0aXRsZSBpZD0idGl0bGUyNTYyNiI+U2hlZXQuMTcyODwvdGl0bGU+JiN4YTsJCQkJJiN4YTsJCQkJCTxwYXRoIGlkPSJwYXRoMjU2MjgiIGlua3NjYXBlOmNvbm5lY3Rvci1jdXJ2YXR1cmU9IjAiIHN0eWxlPSJmaWxsOm5vbmU7c3Ryb2tlOiNGRkZGRkY7c3Ryb2tlLXdpZHRoOjAuMjU7c3Ryb2tlLWxpbmVjYXA6cm91bmQ7c3Ryb2tlLWxpbmVqb2luOnJvdW5kO3N0cm9rZS1taXRlcmxpbWl0OjM7IiBkPSIgICAgICBNMS4yMSwzOUgwIi8+JiN4YTsJCQk8L2c+JiN4YTsJCQk8ZyBpZD0ic2hhcGUxNzI5LTk0IiB0cmFuc2Zvcm09InRyYW5zbGF0ZSgzLjg5MTQsLTIuMTcxMjEpIj4mI3hhOwkJCQk8dGl0bGUgaWQ9InRpdGxlMjU2MzEiPlNoZWV0LjE3Mjk8L3RpdGxlPiYjeGE7CQkJCSYjeGE7CQkJCQk8cGF0aCBpZD0icGF0aDI1NjMzIiBpbmtzY2FwZTpjb25uZWN0b3ItY3VydmF0dXJlPSIwIiBzdHlsZT0iZmlsbDpub25lO3N0cm9rZTojRkZGRkZGO3N0cm9rZS13aWR0aDowLjI1O3N0cm9rZS1saW5lY2FwOnJvdW5kO3N0cm9rZS1saW5lam9pbjpyb3VuZDtzdHJva2UtbWl0ZXJsaW1pdDozOyIgZD0iICAgICAgTTEuMjEsMzlIMCIvPiYjeGE7CQkJPC9nPiYjeGE7CQkJPGcgaWQ9InNoYXBlMTczMC05NyIgdHJhbnNmb3JtPSJ0cmFuc2xhdGUoMy44OTE0LC0xLjQ1MTQ3KSI+JiN4YTsJCQkJPHRpdGxlIGlkPSJ0aXRsZTI1NjM2Ij5TaGVldC4xNzMwPC90aXRsZT4mI3hhOwkJCQkmI3hhOwkJCQkJPHBhdGggaWQ9InBhdGgyNTYzOCIgaW5rc2NhcGU6Y29ubmVjdG9yLWN1cnZhdHVyZT0iMCIgc3R5bGU9ImZpbGw6bm9uZTtzdHJva2U6I0ZGRkZGRjtzdHJva2Utd2lkdGg6MC4yNTtzdHJva2UtbGluZWNhcDpyb3VuZDtzdHJva2UtbGluZWpvaW46cm91bmQ7c3Ryb2tlLW1pdGVybGltaXQ6MzsiIGQ9IiAgICAgIE0xLjIxLDM5SDAiLz4mI3hhOwkJCTwvZz4mI3hhOwkJCTxnIGlkPSJzaGFwZTE3MzEtMTAwIiB0cmFuc2Zvcm09InRyYW5zbGF0ZSgzLjg5MTQsLTAuNzE5NzM3KSI+JiN4YTsJCQkJPHRpdGxlIGlkPSJ0aXRsZTI1NjQxIj5TaGVldC4xNzMxPC90aXRsZT4mI3hhOwkJCQkmI3hhOwkJCQkJPHBhdGggaWQ9InBhdGgyNTY0MyIgaW5rc2NhcGU6Y29ubmVjdG9yLWN1cnZhdHVyZT0iMCIgc3R5bGU9ImZpbGw6bm9uZTtzdHJva2U6I0ZGRkZGRjtzdHJva2Utd2lkdGg6MC4yNTtzdHJva2UtbGluZWNhcDpyb3VuZDtzdHJva2UtbGluZWpvaW46cm91bmQ7c3Ryb2tlLW1pdGVybGltaXQ6MzsiIGQ9IiAgICAgIE0xLjIxLDM5SDAiLz4mI3hhOwkJCTwvZz4mI3hhOwkJCTxnIGlkPSJzaGFwZTE3MzItMTAzIiB0cmFuc2Zvcm09InRyYW5zbGF0ZSgzLjg5MTQpIj4mI3hhOwkJCQk8dGl0bGUgaWQ9InRpdGxlMjU2NDYiPlNoZWV0LjE3MzI8L3RpdGxlPiYjeGE7CQkJCSYjeGE7CQkJCQk8cGF0aCBpZD0icGF0aDI1NjQ4IiBpbmtzY2FwZTpjb25uZWN0b3ItY3VydmF0dXJlPSIwIiBzdHlsZT0iZmlsbDpub25lO3N0cm9rZTojRkZGRkZGO3N0cm9rZS13aWR0aDowLjI1O3N0cm9rZS1saW5lY2FwOnJvdW5kO3N0cm9rZS1saW5lam9pbjpyb3VuZDtzdHJva2UtbWl0ZXJsaW1pdDozOyIgZD0iICAgICAgTTEuMjEsMzlIMCIvPiYjeGE7CQkJPC9nPiYjeGE7CQkJPGcgaWQ9InNoYXBlMTczMy0xMDYiIHRyYW5zZm9ybT0idHJhbnNsYXRlKDAsLTguMTU3MDMpIj4mI3hhOwkJCQk8dGl0bGUgaWQ9InRpdGxlMjU2NTEiPlNoZWV0LjE3MzM8L3RpdGxlPiYjeGE7CQkJCSYjeGE7CQkJCQk8cGF0aCBpZD0icGF0aDI1NjUzIiBpbmtzY2FwZTpjb25uZWN0b3ItY3VydmF0dXJlPSIwIiBzdHlsZT0iZmlsbC1ydWxlOmV2ZW5vZGQ7Y2xpcC1ydWxlOmV2ZW5vZGQ7ZmlsbDojRkZGRkZGO3N0cm9rZTojRkZGRkZGO3N0cm9rZS13aWR0aDowLjI1O3N0cm9rZS1saW5lY2FwOnJvdW5kO3N0cm9rZS1saW5lam9pbjpyb3VuZDtzdHJva2UtbWl0ZXJsaW1pdDozOyIgZD0iICAgICAgTTAsMzcuOTNoMi4xMnYtMC4yMmwwLjY1LDAuNjVMMi4xMiwzOXYtMC4yMkgwVjM3LjkzeiIvPiYjeGE7CQkJPC9nPiYjeGE7CQkJPGcgaWQ9InNoYXBlMTczNC0xMDgiIHRyYW5zZm9ybT0idHJhbnNsYXRlKDAsLTguMTU3MDMpIj4mI3hhOwkJCQk8dGl0bGUgaWQ9InRpdGxlMjU2NTYiPlNoZWV0LjE3MzQ8L3RpdGxlPiYjeGE7CQkJCSYjeGE7CQkJCQk8cGF0aCBpZD0icGF0aDI1NjU4IiBpbmtzY2FwZTpjb25uZWN0b3ItY3VydmF0dXJlPSIwIiBzdHlsZT0iZmlsbDpub25lO3N0cm9rZTojRkZGRkZGO3N0cm9rZS13aWR0aDowLjI1O3N0cm9rZS1saW5lY2FwOnJvdW5kO3N0cm9rZS1saW5lam9pbjpyb3VuZDtzdHJva2UtbWl0ZXJsaW1pdDozOyIgZD0iICAgICAgTTAsMzcuOTNoMi4xMnYtMC4yMmwwLjY1LDAuNjVMMi4xMiwzOXYtMC4yMkgwVjM3LjkzTDAsMzcuOTMiLz4mI3hhOwkJCTwvZz4mI3hhOwkJPC9nPiYjeGE7CQk8ZyBpZD0ic2hhcGUxNzM1LTExMSIgdHJhbnNmb3JtPSJ0cmFuc2xhdGUoMi4yMDcxOCwtNC4zODY3NSkiPiYjeGE7CQkJPHRpdGxlIGlkPSJ0aXRsZTI1NjYyIj5EYXNoYm9hcmQ8L3RpdGxlPiYjeGE7CQkJPHBhdGggaWQ9InBhdGgyNTY2NCIgaW5rc2NhcGU6Y29ubmVjdG9yLWN1cnZhdHVyZT0iMCIgc3R5bGU9ImZpbGwtcnVsZTpldmVub2RkO2NsaXAtcnVsZTpldmVub2RkO2ZpbGw6I0ZGRkZGRjsiIGQ9IiAgICAgTTAuODMsMzAuNTFsNC43NiwzLjI3bDUuNDMsMC45M0MxMC40NCwzNy4xNiw4LjIzLDM5LDUuNTksMzlDMi41MSwzOSwwLDM2LjUsMCwzMy40QzAsMzIuMzUsMC4zLDMxLjM1LDAuODMsMzAuNTF6IE0xMC4xOSwzMC4yNSAgICAgYzAuNjIsMC44OSwwLjk4LDEuOTgsMC45OCwzLjE1bC0wLjA1LDAuNjVsLTQuNzItMC44TDEwLjE5LDMwLjI1eiBNNi4wOCwyNy44M2MxLjQxLDAuMTIsMi42OCwwLjc2LDMuNTgsMS43NmwtMy41MywzLjEzICAgICBsLTAuMjYsMC4yMUw2LjA4LDI3LjgzeiBNNS4xNSwyNy44MWwwLjIzLDUuMDFsLTQuMDYtM0MyLjI1LDI4LjY4LDMuNiwyNy45Myw1LjE1LDI3LjgxeiIvPiYjeGE7CQk8L2c+JiN4YTsJCTxnIGlkPSJzaGFwZTE3MzYtMTEzIiB0cmFuc2Zvcm09InRyYW5zbGF0ZSgxNS43OTIzLC01LjYzODcyKSI+JiN4YTsJCQk8dGl0bGUgaWQ9InRpdGxlMjU2NjciPlNoZWV0LjE3MzY8L3RpdGxlPiYjeGE7CQkJJiN4YTsJCQkJPHBhdGggaWQ9InBhdGgyNTY2OSIgaW5rc2NhcGU6Y29ubmVjdG9yLWN1cnZhdHVyZT0iMCIgc3R5bGU9ImZpbGwtcnVsZTpldmVub2RkO2NsaXAtcnVsZTpldmVub2RkO2ZpbGw6IzNGNTc2NTtzdHJva2U6I0ZGRkZGRjtzdHJva2Utd2lkdGg6MC43NTtzdHJva2UtbGluZWNhcDpyb3VuZDtzdHJva2UtbGluZWpvaW46cm91bmQ7c3Ryb2tlLW1pdGVybGltaXQ6MzsiIGQ9IiAgICAgTTAsMzQuMDlWMzloNC45M3YtNC45MUgweiIvPiYjeGE7CQk8L2c+JiN4YTsJCTxnIGlkPSJzaGFwZTE3MzctMTE1IiB0cmFuc2Zvcm09InRyYW5zbGF0ZSgxNS43OTIzLC01LjYzODcyKSI+JiN4YTsJCQk8dGl0bGUgaWQ9InRpdGxlMjU2NzIiPlNoZWV0LjE3Mzc8L3RpdGxlPiYjeGE7CQkJJiN4YTsJCQkJPHBhdGggaWQ9InBhdGgyNTY3NCIgaW5rc2NhcGU6Y29ubmVjdG9yLWN1cnZhdHVyZT0iMCIgc3R5bGU9ImZpbGw6bm9uZTtzdHJva2U6I0ZGRkZGRjtzdHJva2Utd2lkdGg6MC42MTMyO3N0cm9rZS1saW5lY2FwOnJvdW5kO3N0cm9rZS1saW5lam9pbjpyb3VuZDtzdHJva2UtbWl0ZXJsaW1pdDozOyIgZD0iICAgICBNMCwzOWg0Ljkzdi00LjkxSDBWMzlMMCwzOSIvPiYjeGE7CQk8L2c+JiN4YTsJCTxnIGlkPSJzaGFwZTE3MzgtMTE4IiB0cmFuc2Zvcm09InRyYW5zbGF0ZSgyMC42NDksLTUuNjM4NzIpIj4mI3hhOwkJCTx0aXRsZSBpZD0idGl0bGUyNTY3NyI+U2hlZXQuMTczODwvdGl0bGU+JiN4YTsJCQkmI3hhOwkJCQk8cGF0aCBpZD0icGF0aDI1Njc5IiBpbmtzY2FwZTpjb25uZWN0b3ItY3VydmF0dXJlPSIwIiBzdHlsZT0iZmlsbDpub25lO3N0cm9rZTojRkZGRkZGO3N0cm9rZS13aWR0aDowLjYxMzI7c3Ryb2tlLWxpbmVjYXA6cm91bmQ7c3Ryb2tlLWxpbmVqb2luOnJvdW5kO3N0cm9rZS1taXRlcmxpbWl0OjM7IiBkPSIgICAgIE0wLDM5aDQuOTN2LTQuOTFIMFYzOUwwLDM5Ii8+JiN4YTsJCTwvZz4mI3hhOwkJPGcgaWQ9InNoYXBlMTczOS0xMjEiIHRyYW5zZm9ybT0idHJhbnNsYXRlKDI1LjU3NywtNS42Mzg3MikiPiYjeGE7CQkJPHRpdGxlIGlkPSJ0aXRsZTI1NjgyIj5TaGVldC4xNzM5PC90aXRsZT4mI3hhOwkJCSYjeGE7CQkJCTxwYXRoIGlkPSJwYXRoMjU2ODQiIGlua3NjYXBlOmNvbm5lY3Rvci1jdXJ2YXR1cmU9IjAiIHN0eWxlPSJmaWxsLXJ1bGU6ZXZlbm9kZDtjbGlwLXJ1bGU6ZXZlbm9kZDtmaWxsOiNGRkZGRkY7c3Ryb2tlOiNGRkZGRkY7c3Ryb2tlLXdpZHRoOjAuNzU7c3Ryb2tlLWxpbmVjYXA6cm91bmQ7c3Ryb2tlLWxpbmVqb2luOnJvdW5kO3N0cm9rZS1taXRlcmxpbWl0OjM7IiBkPSIgICAgIE0wLDM0LjA5VjM5aDQuOTJ2LTQuOTFIMHoiLz4mI3hhOwkJPC9nPiYjeGE7CQk8ZyBpZD0ic2hhcGUxNzQwLTEyMyIgdHJhbnNmb3JtPSJ0cmFuc2xhdGUoMjUuNTc3LC01LjYzODcyKSI+JiN4YTsJCQk8dGl0bGUgaWQ9InRpdGxlMjU2ODciPlNoZWV0LjE3NDA8L3RpdGxlPiYjeGE7CQkJJiN4YTsJCQkJPHBhdGggaWQ9InBhdGgyNTY4OSIgaW5rc2NhcGU6Y29ubmVjdG9yLWN1cnZhdHVyZT0iMCIgc3R5bGU9ImZpbGw6bm9uZTtzdHJva2U6I0ZGRkZGRjtzdHJva2Utd2lkdGg6MC42MTMyO3N0cm9rZS1saW5lY2FwOnJvdW5kO3N0cm9rZS1saW5lam9pbjpyb3VuZDtzdHJva2UtbWl0ZXJsaW1pdDozOyIgZD0iICAgICBNMCwzOWg0Ljkydi00LjkxSDBWMzlMMCwzOSIvPiYjeGE7CQk8L2c+JiN4YTsJCTxnIGlkPSJzaGFwZTE3NDEtMTI2IiB0cmFuc2Zvcm09InRyYW5zbGF0ZSgzMC41MDIsLTUuNjM4NzIpIj4mI3hhOwkJCTx0aXRsZSBpZD0idGl0bGUyNTY5MiI+U2hlZXQuMTc0MTwvdGl0bGU+JiN4YTsJCQkmI3hhOwkJCQk8cGF0aCBpZD0icGF0aDI1Njk0IiBpbmtzY2FwZTpjb25uZWN0b3ItY3VydmF0dXJlPSIwIiBzdHlsZT0iZmlsbC1ydWxlOmV2ZW5vZGQ7Y2xpcC1ydWxlOmV2ZW5vZGQ7ZmlsbDojM0Y1NzY1O3N0cm9rZTojRkZGRkZGO3N0cm9rZS13aWR0aDowLjc1O3N0cm9rZS1saW5lY2FwOnJvdW5kO3N0cm9rZS1saW5lam9pbjpyb3VuZDtzdHJva2UtbWl0ZXJsaW1pdDozOyIgZD0iICAgICBNMCwzNC4wOVYzOWg0Ljkzdi00LjkxSDB6Ii8+JiN4YTsJCTwvZz4mI3hhOwkJPGcgaWQ9InNoYXBlMTc0Mi0xMjgiIHRyYW5zZm9ybT0idHJhbnNsYXRlKDMwLjUwMiwtNS42Mzg3MikiPiYjeGE7CQkJPHRpdGxlIGlkPSJ0aXRsZTI1Njk3Ij5TaGVldC4xNzQyPC90aXRsZT4mI3hhOwkJCSYjeGE7CQkJCTxwYXRoIGlkPSJwYXRoMjU2OTkiIGlua3NjYXBlOmNvbm5lY3Rvci1jdXJ2YXR1cmU9IjAiIHN0eWxlPSJmaWxsOm5vbmU7c3Ryb2tlOiNGRkZGRkY7c3Ryb2tlLXdpZHRoOjAuNjEzMjtzdHJva2UtbGluZWNhcDpyb3VuZDtzdHJva2UtbGluZWpvaW46cm91bmQ7c3Ryb2tlLW1pdGVybGltaXQ6MzsiIGQ9IiAgICAgTTAsMzloNC45M3YtNC45MUgwVjM5TDAsMzkiLz4mI3hhOwkJPC9nPiYjeGE7CQk8ZyBpZD0ic2hhcGUxNzQzLTEzMSIgdHJhbnNmb3JtPSJ0cmFuc2xhdGUoMzUuNDMsLTUuNjM4NzIpIj4mI3hhOwkJCTx0aXRsZSBpZD0idGl0bGUyNTcwMiI+U2hlZXQuMTc0MzwvdGl0bGU+JiN4YTsJCQkmI3hhOwkJCQk8cGF0aCBpZD0icGF0aDI1NzA0IiBpbmtzY2FwZTpjb25uZWN0b3ItY3VydmF0dXJlPSIwIiBzdHlsZT0iZmlsbC1ydWxlOmV2ZW5vZGQ7Y2xpcC1ydWxlOmV2ZW5vZGQ7ZmlsbDojRkZGRkZGO3N0cm9rZTojRkZGRkZGO3N0cm9rZS13aWR0aDowLjc1O3N0cm9rZS1saW5lY2FwOnJvdW5kO3N0cm9rZS1saW5lam9pbjpyb3VuZDtzdHJva2UtbWl0ZXJsaW1pdDozOyIgZD0iICAgICBNMCwzNC4wOVYzOWg0Ljkzdi00LjkxSDB6Ii8+JiN4YTsJCTwvZz4mI3hhOwkJPGcgaWQ9InNoYXBlMTc0NC0xMzMiIHRyYW5zZm9ybT0idHJhbnNsYXRlKDM1LjQzLC01LjYzODcyKSI+JiN4YTsJCQk8dGl0bGUgaWQ9InRpdGxlMjU3MDciPlNoZWV0LjE3NDQ8L3RpdGxlPiYjeGE7CQkJJiN4YTsJCQkJPHBhdGggaWQ9InBhdGgyNTcwOSIgaW5rc2NhcGU6Y29ubmVjdG9yLWN1cnZhdHVyZT0iMCIgc3R5bGU9ImZpbGw6bm9uZTtzdHJva2U6I0ZGRkZGRjtzdHJva2Utd2lkdGg6MC42MTMyO3N0cm9rZS1saW5lY2FwOnJvdW5kO3N0cm9rZS1saW5lam9pbjpyb3VuZDtzdHJva2UtbWl0ZXJsaW1pdDozOyIgZD0iICAgICBNMCwzOWg0Ljkzdi00LjkxSDBWMzlMMCwzOSIvPiYjeGE7CQk8L2c+JiN4YTsJCTxnIGlkPSJzaGFwZTE3NDUtMTM2IiB0cmFuc2Zvcm09InRyYW5zbGF0ZSgxNS43OTIzLC0xMC41MDgpIj4mI3hhOwkJCTx0aXRsZSBpZD0idGl0bGUyNTcxMiI+U2hlZXQuMTc0NTwvdGl0bGU+JiN4YTsJCQkmI3hhOwkJCQk8cGF0aCBpZD0icGF0aDI1NzE0IiBpbmtzY2FwZTpjb25uZWN0b3ItY3VydmF0dXJlPSIwIiBzdHlsZT0iZmlsbC1ydWxlOmV2ZW5vZGQ7Y2xpcC1ydWxlOmV2ZW5vZGQ7ZmlsbDojRkZGRkZGO3N0cm9rZTojRkZGRkZGO3N0cm9rZS13aWR0aDowLjc1O3N0cm9rZS1saW5lY2FwOnJvdW5kO3N0cm9rZS1saW5lam9pbjpyb3VuZDtzdHJva2UtbWl0ZXJsaW1pdDozOyIgZD0iICAgICBNMCwzNC4wOVYzOWg0Ljkzdi00LjkxSDB6Ii8+JiN4YTsJCTwvZz4mI3hhOwkJPGcgaWQ9InNoYXBlMTc0Ni0xMzgiIHRyYW5zZm9ybT0idHJhbnNsYXRlKDE1Ljc5MjMsLTEwLjUwOCkiPiYjeGE7CQkJPHRpdGxlIGlkPSJ0aXRsZTI1NzE3Ij5TaGVldC4xNzQ2PC90aXRsZT4mI3hhOwkJCSYjeGE7CQkJCTxwYXRoIGlkPSJwYXRoMjU3MTkiIGlua3NjYXBlOmNvbm5lY3Rvci1jdXJ2YXR1cmU9IjAiIHN0eWxlPSJmaWxsOm5vbmU7c3Ryb2tlOiNGRkZGRkY7c3Ryb2tlLXdpZHRoOjAuNjEzMjtzdHJva2UtbGluZWNhcDpyb3VuZDtzdHJva2UtbGluZWpvaW46cm91bmQ7c3Ryb2tlLW1pdGVybGltaXQ6MzsiIGQ9IiAgICAgTTAsMzloNC45M3YtNC45MUgwVjM5TDAsMzkiLz4mI3hhOwkJPC9nPiYjeGE7CQk8ZyBpZD0ic2hhcGUxNzQ3LTE0MSIgdHJhbnNmb3JtPSJ0cmFuc2xhdGUoMjAuNjQ5LC0xMC41MDgpIj4mI3hhOwkJCTx0aXRsZSBpZD0idGl0bGUyNTcyMiI+U2hlZXQuMTc0NzwvdGl0bGU+JiN4YTsJCQkmI3hhOwkJCQk8cGF0aCBpZD0icGF0aDI1NzI0IiBpbmtzY2FwZTpjb25uZWN0b3ItY3VydmF0dXJlPSIwIiBzdHlsZT0iZmlsbC1ydWxlOmV2ZW5vZGQ7Y2xpcC1ydWxlOmV2ZW5vZGQ7ZmlsbDojM0Y1NzY1O3N0cm9rZTojRkZGRkZGO3N0cm9rZS13aWR0aDowLjc1O3N0cm9rZS1saW5lY2FwOnJvdW5kO3N0cm9rZS1saW5lam9pbjpyb3VuZDtzdHJva2UtbWl0ZXJsaW1pdDozOyIgZD0iICAgICBNMCwzNC4wOVYzOWg0Ljkzdi00LjkxSDB6Ii8+JiN4YTsJCTwvZz4mI3hhOwkJPGcgaWQ9InNoYXBlMTc0OC0xNDMiIHRyYW5zZm9ybT0idHJhbnNsYXRlKDIwLjY0OSwtMTAuNTA4KSI+JiN4YTsJCQk8dGl0bGUgaWQ9InRpdGxlMjU3MjciPlNoZWV0LjE3NDg8L3RpdGxlPiYjeGE7CQkJJiN4YTsJCQkJPHBhdGggaWQ9InBhdGgyNTcyOSIgaW5rc2NhcGU6Y29ubmVjdG9yLWN1cnZhdHVyZT0iMCIgc3R5bGU9ImZpbGw6bm9uZTtzdHJva2U6I0ZGRkZGRjtzdHJva2Utd2lkdGg6MC42MTMyO3N0cm9rZS1saW5lY2FwOnJvdW5kO3N0cm9rZS1saW5lam9pbjpyb3VuZDtzdHJva2UtbWl0ZXJsaW1pdDozOyIgZD0iICAgICBNMCwzOWg0Ljkzdi00LjkxSDBWMzlMMCwzOSIvPiYjeGE7CQk8L2c+JiN4YTsJCTxnIGlkPSJzaGFwZTE3NDktMTQ2IiB0cmFuc2Zvcm09InRyYW5zbGF0ZSgyNS41NzcsLTEwLjUwOCkiPiYjeGE7CQkJPHRpdGxlIGlkPSJ0aXRsZTI1NzMyIj5TaGVldC4xNzQ5PC90aXRsZT4mI3hhOwkJCSYjeGE7CQkJCTxwYXRoIGlkPSJwYXRoMjU3MzQiIGlua3NjYXBlOmNvbm5lY3Rvci1jdXJ2YXR1cmU9IjAiIHN0eWxlPSJmaWxsLXJ1bGU6ZXZlbm9kZDtjbGlwLXJ1bGU6ZXZlbm9kZDtmaWxsOiMzRjU3NjU7c3Ryb2tlOiNGRkZGRkY7c3Ryb2tlLXdpZHRoOjAuNzU7c3Ryb2tlLWxpbmVjYXA6cm91bmQ7c3Ryb2tlLWxpbmVqb2luOnJvdW5kO3N0cm9rZS1taXRlcmxpbWl0OjM7IiBkPSIgICAgIE0wLDM0LjA5VjM5aDQuOTJ2LTQuOTFIMHoiLz4mI3hhOwkJPC9nPiYjeGE7CQk8ZyBpZD0ic2hhcGUxNzUwLTE0OCIgdHJhbnNmb3JtPSJ0cmFuc2xhdGUoMjUuNTc3LC0xMC41MDgpIj4mI3hhOwkJCTx0aXRsZSBpZD0idGl0bGUyNTczNyI+U2hlZXQuMTc1MDwvdGl0bGU+JiN4YTsJCQkmI3hhOwkJCQk8cGF0aCBpZD0icGF0aDI1NzM5IiBpbmtzY2FwZTpjb25uZWN0b3ItY3VydmF0dXJlPSIwIiBzdHlsZT0iZmlsbDpub25lO3N0cm9rZTojRkZGRkZGO3N0cm9rZS13aWR0aDowLjYxMzI7c3Ryb2tlLWxpbmVjYXA6cm91bmQ7c3Ryb2tlLWxpbmVqb2luOnJvdW5kO3N0cm9rZS1taXRlcmxpbWl0OjM7IiBkPSIgICAgIE0wLDM5aDQuOTJ2LTQuOTFIMFYzOUwwLDM5Ii8+JiN4YTsJCTwvZz4mI3hhOwkJPGcgaWQ9InNoYXBlMTc1MS0xNTEiIHRyYW5zZm9ybT0idHJhbnNsYXRlKDMwLjUwMiwtMTAuNTA4KSI+JiN4YTsJCQk8dGl0bGUgaWQ9InRpdGxlMjU3NDIiPlNoZWV0LjE3NTE8L3RpdGxlPiYjeGE7CQkJJiN4YTsJCQkJPHBhdGggaWQ9InBhdGgyNTc0NCIgaW5rc2NhcGU6Y29ubmVjdG9yLWN1cnZhdHVyZT0iMCIgc3R5bGU9ImZpbGw6bm9uZTtzdHJva2U6I0ZGRkZGRjtzdHJva2Utd2lkdGg6MC42MTMyO3N0cm9rZS1saW5lY2FwOnJvdW5kO3N0cm9rZS1saW5lam9pbjpyb3VuZDtzdHJva2UtbWl0ZXJsaW1pdDozOyIgZD0iICAgICBNMCwzOWg0Ljkzdi00LjkxSDBWMzlMMCwzOSIvPiYjeGE7CQk8L2c+JiN4YTsJCTxnIGlkPSJzaGFwZTE3NTItMTU0IiB0cmFuc2Zvcm09InRyYW5zbGF0ZSgzNS40MywtMTAuNTA4KSI+JiN4YTsJCQk8dGl0bGUgaWQ9InRpdGxlMjU3NDciPlNoZWV0LjE3NTI8L3RpdGxlPiYjeGE7CQkJJiN4YTsJCQkJPHBhdGggaWQ9InBhdGgyNTc0OSIgaW5rc2NhcGU6Y29ubmVjdG9yLWN1cnZhdHVyZT0iMCIgc3R5bGU9ImZpbGwtcnVsZTpldmVub2RkO2NsaXAtcnVsZTpldmVub2RkO2ZpbGw6IzNGNTc2NTtzdHJva2U6I0ZGRkZGRjtzdHJva2Utd2lkdGg6MC43NTtzdHJva2UtbGluZWNhcDpyb3VuZDtzdHJva2UtbGluZWpvaW46cm91bmQ7c3Ryb2tlLW1pdGVybGltaXQ6MzsiIGQ9IiAgICAgTTAsMzQuMDlWMzloNC45M3YtNC45MUgweiIvPiYjeGE7CQk8L2c+JiN4YTsJCTxnIGlkPSJzaGFwZTE3NTMtMTU2IiB0cmFuc2Zvcm09InRyYW5zbGF0ZSgzNS40MywtMTAuNTA4KSI+JiN4YTsJCQk8dGl0bGUgaWQ9InRpdGxlMjU3NTIiPlNoZWV0LjE3NTM8L3RpdGxlPiYjeGE7CQkJJiN4YTsJCQkJPHBhdGggaWQ9InBhdGgyNTc1NCIgaW5rc2NhcGU6Y29ubmVjdG9yLWN1cnZhdHVyZT0iMCIgc3R5bGU9ImZpbGw6bm9uZTtzdHJva2U6I0ZGRkZGRjtzdHJva2Utd2lkdGg6MC42MTMyO3N0cm9rZS1saW5lY2FwOnJvdW5kO3N0cm9rZS1saW5lam9pbjpyb3VuZDtzdHJva2UtbWl0ZXJsaW1pdDozOyIgZD0iICAgICBNMCwzOWg0Ljkzdi00LjkxSDBWMzlMMCwzOSIvPiYjeGE7CQk8L2c+JiN4YTsJCTxnIGlkPSJzaGFwZTE3NTQtMTU5IiB0cmFuc2Zvcm09InRyYW5zbGF0ZSg0NC4wMDEzLC01LjQxMTY2KSI+JiN4YTsJCQk8dGl0bGUgaWQ9InRpdGxlMjU3NTciPlNoZWV0LjE3NTQ8L3RpdGxlPiYjeGE7CQkJJiN4YTsJCQkJPHBhdGggaWQ9InBhdGgyNTc1OSIgaW5rc2NhcGU6Y29ubmVjdG9yLWN1cnZhdHVyZT0iMCIgc3R5bGU9ImZpbGwtcnVsZTpldmVub2RkO2NsaXAtcnVsZTpldmVub2RkO2ZpbGw6IzNGNTc2NTtzdHJva2U6I0ZGRkZGRjtzdHJva2Utd2lkdGg6MC41O3N0cm9rZS1saW5lY2FwOnJvdW5kO3N0cm9rZS1saW5lam9pbjpyb3VuZDtzdHJva2UtbWl0ZXJsaW1pdDozOyIgZD0iICAgICBNMCwzNi40NFYzOWgyLjU3di0yLjU2SDB6Ii8+JiN4YTsJCTwvZz4mI3hhOwkJPGcgaWQ9InNoYXBlMTc1NS0xNjEiIHRyYW5zZm9ybT0idHJhbnNsYXRlKDQ0LjAwMTMsLTUuNDExNjYpIj4mI3hhOwkJCTx0aXRsZSBpZD0idGl0bGUyNTc2MiI+U2hlZXQuMTc1NTwvdGl0bGU+JiN4YTsJCQkmI3hhOwkJCQk8cGF0aCBpZD0icGF0aDI1NzY0IiBpbmtzY2FwZTpjb25uZWN0b3ItY3VydmF0dXJlPSIwIiBzdHlsZT0iZmlsbDpub25lO3N0cm9rZTojRkZGRkZGO3N0cm9rZS13aWR0aDowLjU7c3Ryb2tlLWxpbmVjYXA6cm91bmQ7c3Ryb2tlLWxpbmVqb2luOnJvdW5kO3N0cm9rZS1taXRlcmxpbWl0OjM7IiBkPSIgICAgIE0wLDM5aDIuNTd2LTIuNTZIMFYzOUwwLDM5Ii8+JiN4YTsJCTwvZz4mI3hhOwkJPGcgaWQ9InNoYXBlMTc1Ni0xNjQiIHRyYW5zZm9ybT0idHJhbnNsYXRlKDQ2LjU2NjQsLTUuNDExNjYpIj4mI3hhOwkJCTx0aXRsZSBpZD0idGl0bGUyNTc2NyI+U2hlZXQuMTc1NjwvdGl0bGU+JiN4YTsJCQkmI3hhOwkJCQk8cGF0aCBpZD0icGF0aDI1NzY5IiBpbmtzY2FwZTpjb25uZWN0b3ItY3VydmF0dXJlPSIwIiBzdHlsZT0iZmlsbC1ydWxlOmV2ZW5vZGQ7Y2xpcC1ydWxlOmV2ZW5vZGQ7ZmlsbDojM0Y1NzY1O3N0cm9rZTojRkZGRkZGO3N0cm9rZS13aWR0aDowLjU7c3Ryb2tlLWxpbmVjYXA6cm91bmQ7c3Ryb2tlLWxpbmVqb2luOnJvdW5kO3N0cm9rZS1taXRlcmxpbWl0OjM7IiBkPSIgICAgIE0wLDM2LjQ0VjM5aDIuNTd2LTIuNTZIMHoiLz4mI3hhOwkJPC9nPiYjeGE7CQk8ZyBpZD0ic2hhcGUxNzU3LTE2NiIgdHJhbnNmb3JtPSJ0cmFuc2xhdGUoNDYuNTY2NCwtNS40MTE2NikiPiYjeGE7CQkJPHRpdGxlIGlkPSJ0aXRsZTI1NzcyIj5TaGVldC4xNzU3PC90aXRsZT4mI3hhOwkJCSYjeGE7CQkJCTxwYXRoIGlkPSJwYXRoMjU3NzQiIGlua3NjYXBlOmNvbm5lY3Rvci1jdXJ2YXR1cmU9IjAiIHN0eWxlPSJmaWxsOm5vbmU7c3Ryb2tlOiNGRkZGRkY7c3Ryb2tlLXdpZHRoOjAuNTtzdHJva2UtbGluZWNhcDpyb3VuZDtzdHJva2UtbGluZWpvaW46cm91bmQ7c3Ryb2tlLW1pdGVybGltaXQ6MzsiIGQ9IiAgICAgTTAsMzloMi41N3YtMi41NkgwVjM5TDAsMzkiLz4mI3hhOwkJPC9nPiYjeGE7CQk8ZyBpZD0ic2hhcGUxNzU4LTE2OSIgdHJhbnNmb3JtPSJ0cmFuc2xhdGUoNDQuMDAxMywtNy45NjU2MykiPiYjeGE7CQkJPHRpdGxlIGlkPSJ0aXRsZTI1Nzc3Ij5TaGVldC4xNzU4PC90aXRsZT4mI3hhOwkJCSYjeGE7CQkJCTxwYXRoIGlkPSJwYXRoMjU3NzkiIGlua3NjYXBlOmNvbm5lY3Rvci1jdXJ2YXR1cmU9IjAiIHN0eWxlPSJmaWxsLXJ1bGU6ZXZlbm9kZDtjbGlwLXJ1bGU6ZXZlbm9kZDtmaWxsOiNGRkZGRkY7c3Ryb2tlOiNGRkZGRkY7c3Ryb2tlLXdpZHRoOjAuNTtzdHJva2UtbGluZWNhcDpyb3VuZDtzdHJva2UtbGluZWpvaW46cm91bmQ7c3Ryb2tlLW1pdGVybGltaXQ6MzsiIGQ9IiAgICAgTTAsMzYuNDRWMzloMi41N3YtMi41NkgweiIvPiYjeGE7CQk8L2c+JiN4YTsJCTxnIGlkPSJzaGFwZTE3NTktMTcxIiB0cmFuc2Zvcm09InRyYW5zbGF0ZSg0NC4wMDEzLC03Ljk2NTYzKSI+JiN4YTsJCQk8dGl0bGUgaWQ9InRpdGxlMjU3ODIiPlNoZWV0LjE3NTk8L3RpdGxlPiYjeGE7CQkJJiN4YTsJCQkJPHBhdGggaWQ9InBhdGgyNTc4NCIgaW5rc2NhcGU6Y29ubmVjdG9yLWN1cnZhdHVyZT0iMCIgc3R5bGU9ImZpbGw6bm9uZTtzdHJva2U6I0ZGRkZGRjtzdHJva2Utd2lkdGg6MC41O3N0cm9rZS1saW5lY2FwOnJvdW5kO3N0cm9rZS1saW5lam9pbjpyb3VuZDtzdHJva2UtbWl0ZXJsaW1pdDozOyIgZD0iICAgICBNMCwzOWgyLjU3di0yLjU2SDBWMzlMMCwzOSIvPiYjeGE7CQk8L2c+JiN4YTsJCTxnIGlkPSJzaGFwZTE3NjAtMTc0IiB0cmFuc2Zvcm09InRyYW5zbGF0ZSg0Ni41NjY0LC03Ljk2NTYzKSI+JiN4YTsJCQk8dGl0bGUgaWQ9InRpdGxlMjU3ODciPlNoZWV0LjE3NjA8L3RpdGxlPiYjeGE7CQkJJiN4YTsJCQkJPHBhdGggaWQ9InBhdGgyNTc4OSIgaW5rc2NhcGU6Y29ubmVjdG9yLWN1cnZhdHVyZT0iMCIgc3R5bGU9ImZpbGw6bm9uZTtzdHJva2U6I0ZGRkZGRjtzdHJva2Utd2lkdGg6MC41O3N0cm9rZS1saW5lY2FwOnJvdW5kO3N0cm9rZS1saW5lam9pbjpyb3VuZDtzdHJva2UtbWl0ZXJsaW1pdDozOyIgZD0iICAgICBNMCwzOWgyLjU3di0yLjU2SDBWMzlMMCwzOSIvPiYjeGE7CQk8L2c+JiN4YTsJCTxnIGlkPSJzaGFwZTE3NjEtMTc3IiB0cmFuc2Zvcm09InRyYW5zbGF0ZSg0NC4wMDEzLC0xMC41NjE2KSI+JiN4YTsJCQk8dGl0bGUgaWQ9InRpdGxlMjU3OTIiPlNoZWV0LjE3NjE8L3RpdGxlPiYjeGE7CQkJJiN4YTsJCQkJPHBhdGggaWQ9InBhdGgyNTc5NCIgaW5rc2NhcGU6Y29ubmVjdG9yLWN1cnZhdHVyZT0iMCIgc3R5bGU9ImZpbGw6bm9uZTtzdHJva2U6I0ZGRkZGRjtzdHJva2Utd2lkdGg6MC41O3N0cm9rZS1saW5lY2FwOnJvdW5kO3N0cm9rZS1saW5lam9pbjpyb3VuZDtzdHJva2UtbWl0ZXJsaW1pdDozOyIgZD0iICAgICBNMCwzOWgyLjU3di0yLjU2SDBWMzlMMCwzOSIvPiYjeGE7CQk8L2c+JiN4YTsJCTxnIGlkPSJzaGFwZTE3NjItMTgwIiB0cmFuc2Zvcm09InRyYW5zbGF0ZSg0Ni41NjY0LC0xMC41NjE2KSI+JiN4YTsJCQk8dGl0bGUgaWQ9InRpdGxlMjU3OTciPlNoZWV0LjE3NjI8L3RpdGxlPiYjeGE7CQkJJiN4YTsJCQkJPHBhdGggaWQ9InBhdGgyNTc5OSIgaW5rc2NhcGU6Y29ubmVjdG9yLWN1cnZhdHVyZT0iMCIgc3R5bGU9ImZpbGwtcnVsZTpldmVub2RkO2NsaXAtcnVsZTpldmVub2RkO2ZpbGw6IzNGNTc2NTtzdHJva2U6I0ZGRkZGRjtzdHJva2Utd2lkdGg6MC41O3N0cm9rZS1saW5lY2FwOnJvdW5kO3N0cm9rZS1saW5lam9pbjpyb3VuZDtzdHJva2UtbWl0ZXJsaW1pdDozOyIgZD0iICAgICBNMCwzNi40NFYzOWgyLjU3di0yLjU2SDB6Ii8+JiN4YTsJCTwvZz4mI3hhOwkJPGcgaWQ9InNoYXBlMTc2My0xODIiIHRyYW5zZm9ybT0idHJhbnNsYXRlKDQ2LjU2NjQsLTEwLjU2MTYpIj4mI3hhOwkJCTx0aXRsZSBpZD0idGl0bGUyNTgwMiI+U2hlZXQuMTc2MzwvdGl0bGU+JiN4YTsJCQkmI3hhOwkJCQk8cGF0aCBpZD0icGF0aDI1ODA0IiBpbmtzY2FwZTpjb25uZWN0b3ItY3VydmF0dXJlPSIwIiBzdHlsZT0iZmlsbDpub25lO3N0cm9rZTojRkZGRkZGO3N0cm9rZS13aWR0aDowLjU7c3Ryb2tlLWxpbmVjYXA6cm91bmQ7c3Ryb2tlLWxpbmVqb2luOnJvdW5kO3N0cm9rZS1taXRlcmxpbWl0OjM7IiBkPSIgICAgIE0wLDM5aDIuNTd2LTIuNTZIMFYzOUwwLDM5Ii8+JiN4YTsJCTwvZz4mI3hhOwkJPGcgaWQ9InNoYXBlMTc2NC0xODUiIHRyYW5zZm9ybT0idHJhbnNsYXRlKDQ0LjAwMTMsLTEzLjA5NjIpIj4mI3hhOwkJCTx0aXRsZSBpZD0idGl0bGUyNTgwNyI+U2hlZXQuMTc2NDwvdGl0bGU+JiN4YTsJCQkmI3hhOwkJCQk8cGF0aCBpZD0icGF0aDI1ODA5IiBpbmtzY2FwZTpjb25uZWN0b3ItY3VydmF0dXJlPSIwIiBzdHlsZT0iZmlsbC1ydWxlOmV2ZW5vZGQ7Y2xpcC1ydWxlOmV2ZW5vZGQ7ZmlsbDojRkZGRkZGO3N0cm9rZTojRkZGRkZGO3N0cm9rZS13aWR0aDowLjU7c3Ryb2tlLWxpbmVjYXA6cm91bmQ7c3Ryb2tlLWxpbmVqb2luOnJvdW5kO3N0cm9rZS1taXRlcmxpbWl0OjM7IiBkPSIgICAgIE0wLDM2LjQ0VjM5aDIuNTd2LTIuNTZIMHoiLz4mI3hhOwkJPC9nPiYjeGE7CQk8ZyBpZD0ic2hhcGUxNzY1LTE4NyIgdHJhbnNmb3JtPSJ0cmFuc2xhdGUoNDQuMDAxMywtMTMuMDk2MikiPiYjeGE7CQkJPHRpdGxlIGlkPSJ0aXRsZTI1ODEyIj5TaGVldC4xNzY1PC90aXRsZT4mI3hhOwkJCSYjeGE7CQkJCTxwYXRoIGlkPSJwYXRoMjU4MTQiIGlua3NjYXBlOmNvbm5lY3Rvci1jdXJ2YXR1cmU9IjAiIHN0eWxlPSJmaWxsOm5vbmU7c3Ryb2tlOiNGRkZGRkY7c3Ryb2tlLXdpZHRoOjAuNTtzdHJva2UtbGluZWNhcDpyb3VuZDtzdHJva2UtbGluZWpvaW46cm91bmQ7c3Ryb2tlLW1pdGVybGltaXQ6MzsiIGQ9IiAgICAgTTAsMzloMi41N3YtMi41NkgwVjM5TDAsMzkiLz4mI3hhOwkJPC9nPiYjeGE7CQk8ZyBpZD0ic2hhcGUxNzY2LTE5MCIgdHJhbnNmb3JtPSJ0cmFuc2xhdGUoNDYuNTY2NCwtMTMuMDk2MikiPiYjeGE7CQkJPHRpdGxlIGlkPSJ0aXRsZTI1ODE3Ij5TaGVldC4xNzY2PC90aXRsZT4mI3hhOwkJCSYjeGE7CQkJCTxwYXRoIGlkPSJwYXRoMjU4MTkiIGlua3NjYXBlOmNvbm5lY3Rvci1jdXJ2YXR1cmU9IjAiIHN0eWxlPSJmaWxsLXJ1bGU6ZXZlbm9kZDtjbGlwLXJ1bGU6ZXZlbm9kZDtmaWxsOiMzRjU3NjU7c3Ryb2tlOiNGRkZGRkY7c3Ryb2tlLXdpZHRoOjAuNTtzdHJva2UtbGluZWNhcDpyb3VuZDtzdHJva2UtbGluZWpvaW46cm91bmQ7c3Ryb2tlLW1pdGVybGltaXQ6MzsiIGQ9IiAgICAgTTAsMzYuNDRWMzloMi41N3YtMi41NkgweiIvPiYjeGE7CQk8L2c+JiN4YTsJCTxnIGlkPSJzaGFwZTE3NjctMTkyIiB0cmFuc2Zvcm09InRyYW5zbGF0ZSg0Ni41NjY0LC0xMy4wOTYyKSI+JiN4YTsJCQk8dGl0bGUgaWQ9InRpdGxlMjU4MjIiPlNoZWV0LjE3Njc8L3RpdGxlPiYjeGE7CQkJJiN4YTsJCQkJPHBhdGggaWQ9InBhdGgyNTgyNCIgaW5rc2NhcGU6Y29ubmVjdG9yLWN1cnZhdHVyZT0iMCIgc3R5bGU9ImZpbGw6bm9uZTtzdHJva2U6I0ZGRkZGRjtzdHJva2Utd2lkdGg6MC41O3N0cm9rZS1saW5lY2FwOnJvdW5kO3N0cm9rZS1saW5lam9pbjpyb3VuZDtzdHJva2UtbWl0ZXJsaW1pdDozOyIgZD0iICAgICBNMCwzOWgyLjU3di0yLjU2SDBWMzlMMCwzOSIvPiYjeGE7CQk8L2c+JiN4YTsJPC9nPiYjeGE7PC9nPiYjeGE7PC9zdmc+;" vertex="1" parent="1">
          <mxGeometry x="319" y="553" width="54.36" height="40" as="geometry" />
        </mxCell>
        <mxCell id="aVTbyJzQtQtvYW84gZHe-39" value="" style="endArrow=classic;html=1;rounded=0;exitX=0.25;exitY=0;exitDx=0;exitDy=0;" edge="1" parent="1" source="aVTbyJzQtQtvYW84gZHe-35">
          <mxGeometry width="50" height="50" relative="1" as="geometry">
            <mxPoint x="310" y="610" as="sourcePoint" />
            <mxPoint x="348" y="610" as="targetPoint" />
          </mxGeometry>
        </mxCell>
        <mxCell id="aVTbyJzQtQtvYW84gZHe-40" value="" style="endArrow=classic;html=1;rounded=0;exitX=1.002;exitY=0.529;exitDx=0;exitDy=0;exitPerimeter=0;" edge="1" parent="1" target="aVTbyJzQtQtvYW84gZHe-29">
          <mxGeometry width="50" height="50" relative="1" as="geometry">
            <mxPoint x="-60" y="385.65999999999997" as="sourcePoint" />
            <mxPoint x="36" y="385.15999999999997" as="targetPoint" />
          </mxGeometry>
        </mxCell>
        <mxCell id="aVTbyJzQtQtvYW84gZHe-42" value="" style="endArrow=none;html=1;rounded=0;" edge="1" parent="1">
          <mxGeometry width="50" height="50" relative="1" as="geometry">
            <mxPoint x="160" y="456" as="sourcePoint" />
            <mxPoint x="160" y="314" as="targetPoint" />
          </mxGeometry>
        </mxCell>
        <mxCell id="aVTbyJzQtQtvYW84gZHe-43" value="" style="endArrow=classic;html=1;rounded=0;entryX=0.02;entryY=0.649;entryDx=0;entryDy=0;entryPerimeter=0;" edge="1" parent="1">
          <mxGeometry width="50" height="50" relative="1" as="geometry">
            <mxPoint x="159.05" y="455.15999999999997" as="sourcePoint" />
            <mxPoint x="260.00000000000006" y="455.61" as="targetPoint" />
          </mxGeometry>
        </mxCell>
        <mxCell id="aVTbyJzQtQtvYW84gZHe-44" value="Azure Functions" style="shape=image;verticalLabelPosition=bottom;labelBackgroundColor=#ffffff;verticalAlign=top;aspect=fixed;imageAspect=0;image=data:image/svg+xml,PHN2ZyB4bWxuczpjYz0iaHR0cDovL2NyZWF0aXZlY29tbW9ucy5vcmcvbnMjIiB4bWxuczpkYz0iaHR0cDovL3B1cmwub3JnL2RjL2VsZW1lbnRzLzEuMS8iIHhtbG5zOmlua3NjYXBlPSJodHRwOi8vd3d3Lmlua3NjYXBlLm9yZy9uYW1lc3BhY2VzL2lua3NjYXBlIiB4bWxuczpyZGY9Imh0dHA6Ly93d3cudzMub3JnLzE5OTkvMDIvMjItcmRmLXN5bnRheC1ucyMiIHhtbG5zOnNvZGlwb2RpPSJodHRwOi8vc29kaXBvZGkuc291cmNlZm9yZ2UubmV0L0RURC9zb2RpcG9kaS0wLmR0ZCIgeG1sbnM6c3ZnPSJodHRwOi8vd3d3LnczLm9yZy8yMDAwL3N2ZyIgeG1sbnM9Imh0dHA6Ly93d3cudzMub3JnLzIwMDAvc3ZnIiB4bWxuczp4bGluaz0iaHR0cDovL3d3dy53My5vcmcvMTk5OS94bGluayIgdmVyc2lvbj0iMS4xIiBpZD0ic3ZnNTg1MzciIGlua3NjYXBlOnZlcnNpb249IjAuOTIuMyAoMjQwNTU0NiwgMjAxOC0wMy0xMSkiIHNvZGlwb2RpOmRvY25hbWU9ImF6dXJlX2Z1bmN0aW9ucy5zdmciIHg9IjBweCIgeT0iMHB4IiB2aWV3Qm94PSIwIDAgNTcuMzEgNTIuODEiIHN0eWxlPSJlbmFibGUtYmFja2dyb3VuZDpuZXcgMCAwIDU3LjMxIDUyLjgxOyIgeG1sOnNwYWNlPSJwcmVzZXJ2ZSI+JiN4YTs8c29kaXBvZGk6bmFtZWR2aWV3IGJvcmRlcmNvbG9yPSIjNjY2NjY2IiBib3JkZXJvcGFjaXR5PSIxIiBmaXQtbWFyZ2luLWJvdHRvbT0iMCIgZml0LW1hcmdpbi1sZWZ0PSIwIiBmaXQtbWFyZ2luLXJpZ2h0PSIwIiBmaXQtbWFyZ2luLXRvcD0iMCIgZ3JpZHRvbGVyYW5jZT0iMTAiIGd1aWRldG9sZXJhbmNlPSIxMCIgaWQ9Im5hbWVkdmlldzU4NTM5IiBpbmtzY2FwZTpjdXJyZW50LWxheWVyPSJzdmc1ODUzNyIgaW5rc2NhcGU6Y3g9IjM5LjQ3MTQ0MiIgaW5rc2NhcGU6Y3k9IjI2LjM0NTIxNyIgaW5rc2NhcGU6cGFnZW9wYWNpdHk9IjAiIGlua3NjYXBlOnBhZ2VzaGFkb3c9IjIiIGlua3NjYXBlOndpbmRvdy1oZWlnaHQ9IjEwMTciIGlua3NjYXBlOndpbmRvdy1tYXhpbWl6ZWQ9IjEiIGlua3NjYXBlOndpbmRvdy13aWR0aD0iMTkyMCIgaW5rc2NhcGU6d2luZG93LXg9Ii04IiBpbmtzY2FwZTp3aW5kb3cteT0iLTgiIGlua3NjYXBlOnpvb209IjYuMzkxNjgyOCIgb2JqZWN0dG9sZXJhbmNlPSIxMCIgcGFnZWNvbG9yPSIjZmZmZmZmIiBzaG93Z3JpZD0iZmFsc2UiPiYjeGE7CTwvc29kaXBvZGk6bmFtZWR2aWV3PiYjeGE7PGcgaWQ9Imc1ODUzNSIgdHJhbnNmb3JtPSJ0cmFuc2xhdGUoLTkuNTYzNDE2MSwtOS41Njc2MDUyKSI+JiN4YTsJPHRpdGxlIGlkPSJ0aXRsZTU4NTEwIj5QYWdlLTE8L3RpdGxlPiYjeGE7CTxnIGlkPSJncm91cDQ0MzYtMSIgdHJhbnNmb3JtPSJ0cmFuc2xhdGUoOS4zOTU0MywtOS41NjI1KSI+JiN4YTsJCTx0aXRsZSBpZD0idGl0bGU1ODUxMiI+QXp1cmUgRnVuY3Rpb25zLjQzNzwvdGl0bGU+JiN4YTsJCTxnIGlkPSJzaGFwZTQ0MzctMiIgdHJhbnNmb3JtPSJ0cmFuc2xhdGUoMzkuMjA1OSwtMTAuMjkzOCkiPiYjeGE7CQkJPHRpdGxlIGlkPSJ0aXRsZTU4NTE0Ij5TaGVldC40NDM3PC90aXRsZT4mI3hhOwkJCTxwYXRoIGlkPSJwYXRoNTg1MTYiIGlua3NjYXBlOmNvbm5lY3Rvci1jdXJ2YXR1cmU9IjAiIHN0eWxlPSJmaWxsOiMzOTk5QzY7IiBkPSJNMTcuOSw1Ni4xOGMwLjU0LTAuNTMsMC40NS0xLjUyLDAtMi4wNiAgICAgbC0yLjc3LTIuNzdsLTEyLjM2LTEyYy0wLjUzLTAuNTMtMS4zNC0wLjUzLTEuOTYsMGMtMC41NCwwLjU0LTAuNzIsMS41MywwLDIuMDZsMTIuOTcsMTIuNzFjMC41NCwwLjU0LDAuNTQsMS41MywwLDIuMDYgICAgIEwwLjU0LDY5LjM0QzAsNjkuODgsMCw3MC44NiwwLjU0LDcxLjRjMC41MywwLjU0LDEuNTIsMC40NSwxLjk3LDBsMTIuMjYtMTIuMTdjMCwwLDAsMCwwLjA5LTAuMDlMMTcuOSw1Ni4xOHoiLz4mI3hhOwkJPC9nPiYjeGE7CQk8ZyBpZD0ic2hhcGU0NDM4LTQiIHRyYW5zZm9ybT0idHJhbnNsYXRlKDAsLTEwLjI5MzgpIj4mI3hhOwkJCTx0aXRsZSBpZD0idGl0bGU1ODUxOSI+U2hlZXQuNDQzODwvdGl0bGU+JiN4YTsJCQk8cGF0aCBpZD0icGF0aDU4NTIxIiBpbmtzY2FwZTpjb25uZWN0b3ItY3VydmF0dXJlPSIwIiBzdHlsZT0iZmlsbDojMzk5OUM2OyIgZD0iTTAuNTQsNTYuMThjLTAuNTQtMC41My0wLjQ1LTEuNTIsMC0yLjA2ICAgICBsMi43Ny0yLjc3bDEyLjM1LTEyYzAuNTQtMC41MywxLjM1LTAuNTMsMS45NywwYzAuNTQsMC41NCwwLjcyLDEuNTMsMCwyLjA2TDQuOTIsNTQuMTJjLTAuNTMsMC41NC0wLjUzLDEuNTMsMCwyLjA2TDE3LjksNjkuMzQgICAgIGMwLjU0LDAuNTQsMC41NCwxLjUyLDAsMi4wNmMtMC41MywwLjU0LTEuNTIsMC40NS0xLjk3LDBMMy40LDU5LjQxYzAsMCwwLDAtMC4wOS0wLjA5TDAuNTQsNTYuMTh6Ii8+JiN4YTsJCTwvZz4mI3hhOwkJPGcgaWQ9InNoYXBlNDQzOS02IiB0cmFuc2Zvcm09InRyYW5zbGF0ZSgxNS45MzMpIj4mI3hhOwkJCTx0aXRsZSBpZD0idGl0bGU1ODUyNCI+U2hlZXQuNDQzOTwvdGl0bGU+JiN4YTsJCQk8cGF0aCBpZD0icGF0aDU4NTI2IiBpbmtzY2FwZTpjb25uZWN0b3ItY3VydmF0dXJlPSIwIiBzdHlsZT0iZmlsbDojRkNEMTE2OyIgZD0iTTI2Ljg1LDE5LjEzSDkuNEwwLDQ1LjYybDExLjQ2LDAuMDlMMi41MSw3MS45NCAgICAgbDI0LjctMzVIMTUuMjJMMjYuODUsMTkuMTN6Ii8+JiN4YTsJCTwvZz4mI3hhOwkJPGcgaWQ9InNoYXBlNDQ0MC04IiB0cmFuc2Zvcm09InRyYW5zbGF0ZSgxOC40MzkzKSI+JiN4YTsJCQk8dGl0bGUgaWQ9InRpdGxlNTg1MjkiPlNoZWV0LjQ0NDA8L3RpdGxlPiYjeGE7CQkJPHBhdGggaWQ9InBhdGg1ODUzMSIgaW5rc2NhcGU6Y29ubmVjdG9yLWN1cnZhdHVyZT0iMCIgc3R5bGU9ImZpbGw6I0ZGOEMwMDtmaWxsLW9wYWNpdHk6MC4zOyIgZD0iTTEyLjcxLDM2Ljk0bDExLjY0LTE3LjgxICAgICBoLTkuMTNMNS41NSw0MS4xNGwxMS40NiwwLjA5TDAsNzEuOTRsMjQuNzEtMzVMMTIuNzEsMzYuOTR6Ii8+JiN4YTsJCTwvZz4mI3hhOwk8L2c+JiN4YTs8L2c+JiN4YTs8L3N2Zz4=;" vertex="1" parent="1">
          <mxGeometry x="261.99999999999994" y="429" width="57" height="53" as="geometry" />
        </mxCell>
        <mxCell id="aVTbyJzQtQtvYW84gZHe-45" value="" style="endArrow=classic;html=1;rounded=0;exitX=1;exitY=0.5;exitDx=0;exitDy=0;entryX=0;entryY=0.5;entryDx=0;entryDy=0;" edge="1" parent="1" target="aVTbyJzQtQtvYW84gZHe-46">
          <mxGeometry width="50" height="50" relative="1" as="geometry">
            <mxPoint x="319" y="455.15999999999997" as="sourcePoint" />
            <mxPoint x="351.5" y="455.58" as="targetPoint" />
          </mxGeometry>
        </mxCell>
        <mxCell id="aVTbyJzQtQtvYW84gZHe-46" value="&lt;font style=&quot;font-size: 10px;&quot;&gt;Test Engine&lt;/font&gt;&lt;div style=&quot;font-size: 10px;&quot;&gt;&lt;font style=&quot;font-size: 10px;&quot;&gt;(Spike Testing)&lt;/font&gt;&lt;/div&gt;" style="rounded=1;whiteSpace=wrap;html=1;fillColor=none;" vertex="1" parent="1">
          <mxGeometry x="375" y="438" width="120" height="35" as="geometry" />
        </mxCell>
        <mxCell id="aVTbyJzQtQtvYW84gZHe-49" value="Metrics" style="image;aspect=fixed;html=1;points=[];align=center;fontSize=12;image=img/lib/azure2/management_governance/Metrics.svg;" vertex="1" parent="1">
          <mxGeometry x="463.72" y="550" width="42.31" height="45.83" as="geometry" />
        </mxCell>
        <mxCell id="aVTbyJzQtQtvYW84gZHe-50" value="" style="endArrow=classic;html=1;rounded=0;entryX=0.66;entryY=-0.035;entryDx=0;entryDy=0;entryPerimeter=0;exitX=0.847;exitY=1.002;exitDx=0;exitDy=0;exitPerimeter=0;" edge="1" parent="1" source="aVTbyJzQtQtvYW84gZHe-47" target="aVTbyJzQtQtvYW84gZHe-49">
          <mxGeometry width="50" height="50" relative="1" as="geometry">
            <mxPoint x="490" y="450" as="sourcePoint" />
            <mxPoint x="540" y="400" as="targetPoint" />
          </mxGeometry>
        </mxCell>
        <mxCell id="aVTbyJzQtQtvYW84gZHe-51" value="" style="endArrow=classic;html=1;rounded=0;entryX=1;entryY=0.5;entryDx=0;entryDy=0;" edge="1" parent="1" target="aVTbyJzQtQtvYW84gZHe-38">
          <mxGeometry width="50" height="50" relative="1" as="geometry">
            <mxPoint x="460.72" y="573" as="sourcePoint" />
            <mxPoint x="510.72" y="523" as="targetPoint" />
          </mxGeometry>
        </mxCell>
        <mxCell id="aVTbyJzQtQtvYW84gZHe-52" value="" style="group" vertex="1" connectable="0" parent="1">
          <mxGeometry x="280" y="760" width="270" height="70" as="geometry" />
        </mxCell>
        <mxCell id="aVTbyJzQtQtvYW84gZHe-35" value="" style="rounded=1;whiteSpace=wrap;html=1;fillColor=#eeeeee;dashed=1;dashPattern=1 2;strokeColor=#36393d;" vertex="1" parent="aVTbyJzQtQtvYW84gZHe-52">
          <mxGeometry width="270" height="70" as="geometry" />
        </mxCell>
        <mxCell id="aVTbyJzQtQtvYW84gZHe-34" value="" style="image;aspect=fixed;html=1;points=[];align=center;fontSize=12;image=img/lib/azure2/management_governance/Monitor.svg;" vertex="1" parent="aVTbyJzQtQtvYW84gZHe-52">
          <mxGeometry x="8.279999999999973" y="8" width="30" height="30" as="geometry" />
        </mxCell>
        <mxCell id="aVTbyJzQtQtvYW84gZHe-36" value="Azure Monitor" style="text;html=1;align=center;verticalAlign=middle;whiteSpace=wrap;rounded=0;" vertex="1" parent="aVTbyJzQtQtvYW84gZHe-52">
          <mxGeometry x="38.27999999999997" y="8" width="111.72" height="30" as="geometry" />
        </mxCell>
        <mxCell id="aVTbyJzQtQtvYW84gZHe-53" value="&lt;font style=&quot;font-size: 10px;&quot;&gt;Test Engine&lt;/font&gt;&lt;div style=&quot;font-size: 10px;&quot;&gt;&lt;font style=&quot;font-size: 10px;&quot;&gt;(Soak Testing)&lt;/font&gt;&lt;/div&gt;" style="rounded=1;whiteSpace=wrap;html=1;fillColor=none;" vertex="1" parent="1">
          <mxGeometry x="375" y="381" width="120" height="35" as="geometry" />
        </mxCell>
        <mxCell id="aVTbyJzQtQtvYW84gZHe-54" value="" style="endArrow=classic;html=1;rounded=0;entryX=0;entryY=0.5;entryDx=0;entryDy=0;" edge="1" parent="1">
          <mxGeometry width="50" height="50" relative="1" as="geometry">
            <mxPoint x="340.36" y="399.21" as="sourcePoint" />
            <mxPoint x="374.36" y="399.21" as="targetPoint" />
          </mxGeometry>
        </mxCell>
        <mxCell id="aVTbyJzQtQtvYW84gZHe-55" value="" style="endArrow=classic;html=1;rounded=0;exitX=1;exitY=0.469;exitDx=0;exitDy=0;exitPerimeter=0;" edge="1" parent="1" source="aVTbyJzQtQtvYW84gZHe-4">
          <mxGeometry width="50" height="50" relative="1" as="geometry">
            <mxPoint x="120" y="390" as="sourcePoint" />
            <mxPoint x="160" y="385" as="targetPoint" />
          </mxGeometry>
        </mxCell>
        <mxCell id="aVTbyJzQtQtvYW84gZHe-56" value="" style="rounded=1;whiteSpace=wrap;html=1;dashed=1;fillColor=none;arcSize=15;" vertex="1" parent="1">
          <mxGeometry x="330" y="210" width="190" height="280" as="geometry" />
        </mxCell>
        <mxCell id="aVTbyJzQtQtvYW84gZHe-65" value="" style="group" vertex="1" connectable="0" parent="1">
          <mxGeometry x="710" y="150" width="560" height="550" as="geometry" />
        </mxCell>
        <mxCell id="aVTbyJzQtQtvYW84gZHe-61" value="" style="rounded=1;whiteSpace=wrap;html=1;fillColor=#f5f5f5;strokeColor=#666666;fontColor=#333333;" vertex="1" parent="aVTbyJzQtQtvYW84gZHe-65">
          <mxGeometry y="-10" width="430" height="560" as="geometry" />
        </mxCell>
        <mxCell id="aVTbyJzQtQtvYW84gZHe-60" value="" style="shape=image;verticalLabelPosition=bottom;labelBackgroundColor=#ffffff;verticalAlign=top;aspect=fixed;imageAspect=0;image=data:image/svg+xml,PHN2ZyB4bWxuczpjYz0iaHR0cDovL2NyZWF0aXZlY29tbW9ucy5vcmcvbnMjIiB4bWxuczpkYz0iaHR0cDovL3B1cmwub3JnL2RjL2VsZW1lbnRzLzEuMS8iIHhtbG5zOmlua3NjYXBlPSJodHRwOi8vd3d3Lmlua3NjYXBlLm9yZy9uYW1lc3BhY2VzL2lua3NjYXBlIiB4bWxuczpyZGY9Imh0dHA6Ly93d3cudzMub3JnLzE5OTkvMDIvMjItcmRmLXN5bnRheC1ucyMiIHhtbG5zOnNvZGlwb2RpPSJodHRwOi8vc29kaXBvZGkuc291cmNlZm9yZ2UubmV0L0RURC9zb2RpcG9kaS0wLmR0ZCIgeG1sbnM6c3ZnPSJodHRwOi8vd3d3LnczLm9yZy8yMDAwL3N2ZyIgeG1sbnM9Imh0dHA6Ly93d3cudzMub3JnLzIwMDAvc3ZnIiB4bWxuczp4bGluaz0iaHR0cDovL3d3dy53My5vcmcvMTk5OS94bGluayIgdmVyc2lvbj0iMS4xIiBpZD0ic3ZnNTU2MzQiIGlua3NjYXBlOnZlcnNpb249IjAuOTIuMyAoMjQwNTU0NiwgMjAxOC0wMy0xMSkiIHNvZGlwb2RpOmRvY25hbWU9ImF6dXJlX2Nsb3VkLnN2ZyIgeD0iMHB4IiB5PSIwcHgiIHZpZXdCb3g9IjAgMCAxMzMuOTggNjkuMTUiIHN0eWxlPSJlbmFibGUtYmFja2dyb3VuZDpuZXcgMCAwIDEzMy45OCA2OS4xNTsiIHhtbDpzcGFjZT0icHJlc2VydmUiPiYjeGE7PHNvZGlwb2RpOm5hbWVkdmlldyBib3JkZXJjb2xvcj0iIzY2NjY2NiIgYm9yZGVyb3BhY2l0eT0iMSIgZml0LW1hcmdpbi1ib3R0b209IjAiIGZpdC1tYXJnaW4tbGVmdD0iMCIgZml0LW1hcmdpbi1yaWdodD0iMCIgZml0LW1hcmdpbi10b3A9IjAiIGdyaWR0b2xlcmFuY2U9IjEwIiBndWlkZXRvbGVyYW5jZT0iMTAiIGlkPSJuYW1lZHZpZXc1NTYzNiIgaW5rc2NhcGU6Y3VycmVudC1sYXllcj0ic3ZnNTU2MzQiIGlua3NjYXBlOmN4PSIxMTYuNjE3MDEiIGlua3NjYXBlOmN5PSIxOS42MzE3MDUiIGlua3NjYXBlOnBhZ2VvcGFjaXR5PSIwIiBpbmtzY2FwZTpwYWdlc2hhZG93PSIyIiBpbmtzY2FwZTp3aW5kb3ctaGVpZ2h0PSIxMDE3IiBpbmtzY2FwZTp3aW5kb3ctbWF4aW1pemVkPSIxIiBpbmtzY2FwZTp3aW5kb3ctd2lkdGg9IjE5MjAiIGlua3NjYXBlOndpbmRvdy14PSItOCIgaW5rc2NhcGU6d2luZG93LXk9Ii04IiBpbmtzY2FwZTp6b29tPSI0LjYwMTQ4ODgiIG9iamVjdHRvbGVyYW5jZT0iMTAiIHBhZ2Vjb2xvcj0iI2ZmZmZmZiIgc2hvd2dyaWQ9ImZhbHNlIj4mI3hhOwk8L3NvZGlwb2RpOm5hbWVkdmlldz4mI3hhOzxnIGlkPSJnNTU2MzIiIHRyYW5zZm9ybT0idHJhbnNsYXRlKC0wLjc4MDQ2OTA4LC0wLjc1NzU4NjY2KSI+JiN4YTsJPHRpdGxlIGlkPSJ0aXRsZTU1NjI1Ij5QYWdlLTE8L3RpdGxlPiYjeGE7CTxnIGlkPSJzaGFwZTQyMzItMSIgdHJhbnNmb3JtPSJ0cmFuc2xhdGUoMC44NzcwMDMsLTAuNzUwMDYzKSI+JiN4YTsJCTx0aXRsZSBpZD0idGl0bGU1NTYyNyI+QXp1cmUgQ2xvdWQ8L3RpdGxlPiYjeGE7CQk8cGF0aCBpZD0icGF0aDU1NjI5IiBpbmtzY2FwZTpjb25uZWN0b3ItY3VydmF0dXJlPSIwIiBzdHlsZT0iZmlsbDojODBERUY5O2ZpbGwtb3BhY2l0eTowLjc7IiBkPSJNMTEyLjIsMjYuNzUgICAgYy0yLjM3LTE2LjEzLTE3LjM3LTI3LjMtMzMuNS0yNC45M0M2Ni4xNCwzLjY2LDU2LjE2LDEzLjMzLDUzLjkyLDI1LjgzYy04LjUzLTcuMS0yMS4yLTUuOTQtMjguMywyLjU5ICAgIGMtMS44NSwyLjIyLTMuMiw0LjgyLTMuOTUsNy42MmMtOS40Mi0yLjMyLTE4Ljk0LDMuNDMtMjEuMjYsMTIuODVzMy40MywxOC45NCwxMi44NSwyMS4yNmMxLjM4LDAuMzQsMi43OSwwLjUxLDQuMjEsMC41MWg5OC44MiAgICBjMTAuMDMtMi4wNCwxNy41OC0xMS4zNCwxNy41OC0yMS45NkMxMzMuODgsMzYuNjgsMTI0LjIyLDI2LjksMTEyLjIsMjYuNzV6Ii8+JiN4YTsJPC9nPiYjeGE7PC9nPiYjeGE7PC9zdmc+;" vertex="1" parent="aVTbyJzQtQtvYW84gZHe-65">
          <mxGeometry x="20" y="7" width="97.1" height="50" as="geometry" />
        </mxCell>
        <mxCell id="aVTbyJzQtQtvYW84gZHe-64" value="&lt;b&gt;Auction Platfrom in Azure Cloud&lt;/b&gt;" style="text;html=1;align=center;verticalAlign=middle;whiteSpace=wrap;rounded=0;" vertex="1" parent="aVTbyJzQtQtvYW84gZHe-65">
          <mxGeometry x="140" y="17" width="190" height="30" as="geometry" />
        </mxCell>
        <mxCell id="aVTbyJzQtQtvYW84gZHe-66" value="Azure App Services" style="image;aspect=fixed;html=1;points=[];align=center;fontSize=12;image=img/lib/azure2/app_services/App_Services.svg;" vertex="1" parent="aVTbyJzQtQtvYW84gZHe-65">
          <mxGeometry x="60" y="110" width="64" height="64" as="geometry" />
        </mxCell>
        <mxCell id="aVTbyJzQtQtvYW84gZHe-72" value="Azure Kubetnetes" style="image;aspect=fixed;html=1;points=[];align=center;fontSize=12;image=img/lib/azure2/compute/Kubernetes_Services.svg;" vertex="1" parent="aVTbyJzQtQtvYW84gZHe-65">
          <mxGeometry x="60" y="250" width="68" height="60" as="geometry" />
        </mxCell>
        <mxCell id="aVTbyJzQtQtvYW84gZHe-73" value="Azure Blob Storage" style="shape=image;verticalLabelPosition=bottom;labelBackgroundColor=#ffffff;verticalAlign=top;aspect=fixed;imageAspect=0;image=data:image/svg+xml,PHN2ZyB4bWxuczpjYz0iaHR0cDovL2NyZWF0aXZlY29tbW9ucy5vcmcvbnMjIiB4bWxuczpkYz0iaHR0cDovL3B1cmwub3JnL2RjL2VsZW1lbnRzLzEuMS8iIHhtbG5zOmlua3NjYXBlPSJodHRwOi8vd3d3Lmlua3NjYXBlLm9yZy9uYW1lc3BhY2VzL2lua3NjYXBlIiB4bWxuczpyZGY9Imh0dHA6Ly93d3cudzMub3JnLzE5OTkvMDIvMjItcmRmLXN5bnRheC1ucyMiIHhtbG5zOnNvZGlwb2RpPSJodHRwOi8vc29kaXBvZGkuc291cmNlZm9yZ2UubmV0L0RURC9zb2RpcG9kaS0wLmR0ZCIgeG1sbnM6c3ZnPSJodHRwOi8vd3d3LnczLm9yZy8yMDAwL3N2ZyIgeG1sbnM9Imh0dHA6Ly93d3cudzMub3JnLzIwMDAvc3ZnIiB4bWxuczp4bGluaz0iaHR0cDovL3d3dy53My5vcmcvMTk5OS94bGluayIgdmVyc2lvbj0iMS4xIiBpZD0ic3ZnMTA5Mjk0IiBpbmtzY2FwZTp2ZXJzaW9uPSIwLjkyLjMgKDI0MDU1NDYsIDIwMTgtMDMtMTEpIiBzb2RpcG9kaTpkb2NuYW1lPSJhenVyZV9ibG9iX3N0b3JhZ2Uuc3ZnIiB4PSIwcHgiIHk9IjBweCIgdmlld0JveD0iMCAwIDc2LjQyIDY2LjMiIHN0eWxlPSJlbmFibGUtYmFja2dyb3VuZDpuZXcgMCAwIDc2LjQyIDY2LjM7IiB4bWw6c3BhY2U9InByZXNlcnZlIj4mI3hhOzxzb2RpcG9kaTpuYW1lZHZpZXcgYm9yZGVyY29sb3I9IiM2NjY2NjYiIGJvcmRlcm9wYWNpdHk9IjEiIGZpdC1tYXJnaW4tYm90dG9tPSIwIiBmaXQtbWFyZ2luLWxlZnQ9IjAiIGZpdC1tYXJnaW4tcmlnaHQ9IjAiIGZpdC1tYXJnaW4tdG9wPSIwIiBncmlkdG9sZXJhbmNlPSIxMCIgZ3VpZGV0b2xlcmFuY2U9IjEwIiBpZD0ibmFtZWR2aWV3MTA5Mjk2IiBpbmtzY2FwZTpjdXJyZW50LWxheWVyPSJzdmcxMDkyOTQiIGlua3NjYXBlOmN4PSI1MC45NDUxOTMiIGlua3NjYXBlOmN5PSI0NC4xOTk1NTEiIGlua3NjYXBlOnBhZ2VvcGFjaXR5PSIwIiBpbmtzY2FwZTpwYWdlc2hhZG93PSIyIiBpbmtzY2FwZTp3aW5kb3ctaGVpZ2h0PSIxMDE3IiBpbmtzY2FwZTp3aW5kb3ctbWF4aW1pemVkPSIxIiBpbmtzY2FwZTp3aW5kb3ctd2lkdGg9IjE5MjAiIGlua3NjYXBlOndpbmRvdy14PSItOCIgaW5rc2NhcGU6d2luZG93LXk9Ii04IiBpbmtzY2FwZTp6b29tPSI4Ljc0NjA0MTEiIG9iamVjdHRvbGVyYW5jZT0iMTAiIHBhZ2Vjb2xvcj0iI2ZmZmZmZiIgc2hvd2dyaWQ9ImZhbHNlIj4mI3hhOwk8L3NvZGlwb2RpOm5hbWVkdmlldz4mI3hhOzxnIGlkPSJnMTA5MjkyIiB0cmFuc2Zvcm09InRyYW5zbGF0ZSgtNC4wMjYzMiwtNC4wMjM4NzY1KSI+JiN4YTsJPHRpdGxlIGlkPSJ0aXRsZTEwOTI2NCI+UGFnZS0xPC90aXRsZT4mI3hhOwk8ZyBpZD0iZ3JvdXAyNjQtMSIgdHJhbnNmb3JtPSJ0cmFuc2xhdGUoNC4wMjYzMiwtNC4wMjYzMikiPiYjeGE7CQk8dGl0bGUgaWQ9InRpdGxlMTA5MjY2Ij5BenVyZSBCbG9iIFN0b3JhZ2UgKERlcHJlY2F0ZWQpPC90aXRsZT4mI3hhOwkJPGcgaWQ9Imdyb3VwMjY1LTIiPiYjeGE7CQkJPHRpdGxlIGlkPSJ0aXRsZTEwOTI2OCI+U2hlZXQuMjY1PC90aXRsZT4mI3hhOwkJCTxnIGlkPSJzaGFwZTI2Ni0zIj4mI3hhOwkJCQk8dGl0bGUgaWQ9InRpdGxlMTA5MjcwIj5TaGVldC4yNjY8L3RpdGxlPiYjeGE7CQkJCTxwYXRoIGlkPSJwYXRoMTA5MjcyIiBpbmtzY2FwZTpjb25uZWN0b3ItY3VydmF0dXJlPSIwIiBzdHlsZT0iZmlsbDojMDA3OEQ3OyIgZD0iTTU3LjM2LDguMDVIMTkuMDVMMCw0MS4ybDE5LjA1LDMzLjE1aDM4LjMxICAgICAgTDc2LjQyLDQxLjJMNTcuMzYsOC4wNXogTTU3LjU2LDU2LjA5YzAsMi43OC0yLjM4LDUuMTYtNS4xNiw1LjE2SDI0LjIyYy0yLjc4LDAtNS4xNy0yLjM4LTUuMTctNS4xNlYyNi41MSAgICAgIGMwLTIuNzgsMi4zOS01LjE2LDUuMTctNS4xNmgyMC44NGMxLjk4LDAsMy45NywwLDMuOTcsMGgwLjU5bDcuOTQsNy45NHY0LjE3TDU3LjU2LDU2LjA5eiIvPiYjeGE7CQkJPC9nPiYjeGE7CQkJPGcgaWQ9InNoYXBlMjY3LTUiIHRyYW5zZm9ybT0idHJhbnNsYXRlKDMyLjE1NTEsLTIxLjQzNjgpIj4mI3hhOwkJCQk8dGl0bGUgaWQ9InRpdGxlMTA5Mjc1Ij5TaGVldC4yNjc8L3RpdGxlPiYjeGE7CQkJCTxwYXRoIGlkPSJwYXRoMTA5Mjc3IiBpbmtzY2FwZTpjb25uZWN0b3ItY3VydmF0dXJlPSIwIiBzdHlsZT0iZmlsbDojMDA3OEQ3OyIgZD0iTTMuMTgsNjhjMC0wLjQtMC4yLTAuNi0wLjItMC44ICAgICAgYzAtMC4yLTAuMi0wLjM5LTAuNC0wLjU5cy0wLjItMC4yLTAuNC0wLjJzLTAuMzksMC0wLjU5LDBjLTAuNCwwLTAuNiwwLTAuOCwwLjJDMC42LDY2LjgxLDAuNCw2NywwLjIsNjcuNFMwLDY4LjE5LDAsNjguNTkgICAgICBjMCwwLjQsMCwwLjk5LDAsMS43OWMwLDAuNzksMCwxLjM5LDAsMS45OGMwLDAuNiwwLjIsMSwwLjQsMS4xOWMwLjIsMC40LDAuMzksMC42LDAuNTksMC42YzAuMiwwLjIsMC40LDAuMiwwLjgsMC4yICAgICAgYzAuMTksMCwwLjM5LDAsMC41OS0wLjJjMC4yLDAsMC40LTAuMiwwLjQtMC40YzAuMi0wLjIsMC4yLTAuMzksMC40LTAuNTljMC0wLjIsMC4xOS0wLjQsMC4xOS0wLjhjMC0wLjIsMC0wLjU5LDAuMi0wLjk5ICAgICAgYzAtMC40LDAtMC43OSwwLTEuMTljMC0wLjYsMC0wLjk5LDAtMS4zOUMzLjE4LDY4LjU5LDMuMTgsNjguMzksMy4xOCw2OHoiLz4mI3hhOwkJCTwvZz4mI3hhOwkJCTxnIGlkPSJzaGFwZTI2OC03IiB0cmFuc2Zvcm09InRyYW5zbGF0ZSg0MS4wODcxLC0zNi45MTg5KSI+JiN4YTsJCQkJPHRpdGxlIGlkPSJ0aXRsZTEwOTI4MCI+U2hlZXQuMjY4PC90aXRsZT4mI3hhOwkJCQk8cGF0aCBpZD0icGF0aDEwOTI4MiIgaW5rc2NhcGU6Y29ubmVjdG9yLWN1cnZhdHVyZT0iMCIgc3R5bGU9ImZpbGw6IzAwNzhENzsiIGQ9Ik0zLjE4LDY4YzAtMC40LTAuMi0wLjYtMC4yLTAuOCAgICAgIGMwLTAuMi0wLjItMC4zOS0wLjQtMC41OXMtMC4yLTAuMi0wLjQtMC4ycy0wLjM5LDAtMC41OSwwYy0wLjQsMC0wLjYsMC0wLjgsMC4yQzAuNiw2Ni44MSwwLjQsNjcsMC4yLDY3LjRTMCw2OC4xOSwwLDY4LjU5ICAgICAgYzAsMC40LDAsMC45OSwwLDEuNzljMCwwLjc5LDAsMS4zOSwwLDEuOThjMCwwLjYsMC4yLDEsMC40LDEuMTljMC4yLDAuNCwwLjM5LDAuNiwwLjU5LDAuNmMwLjIsMC4yLDAuNCwwLjIsMC44LDAuMiAgICAgIGMwLjE5LDAsMC4zOSwwLDAuNTktMC4yYzAuMiwwLDAuNC0wLjIsMC40LTAuNGMwLjItMC4yLDAuMi0wLjM5LDAuNC0wLjU5YzAtMC4yLDAuMTktMC40LDAuMTktMC44YzAtMC4yLDAtMC41OSwwLjItMC45OSAgICAgIGMwLTAuNCwwLTAuNzksMC0xLjE5YzAtMC42LDAtMC45OSwwLTEuMzlDMy4zNyw2OC43OSwzLjM3LDY4LjM5LDMuMTgsNjh6Ii8+JiN4YTsJCQk8L2c+JiN4YTsJCQk8ZyBpZD0ic2hhcGUyNjktOSIgdHJhbnNmb3JtPSJ0cmFuc2xhdGUoMjEuODMzNywtMTUuODc5MSkiPiYjeGE7CQkJCTx0aXRsZSBpZD0idGl0bGUxMDkyODUiPlNoZWV0LjI2OTwvdGl0bGU+JiN4YTsJCQkJPHBhdGggaWQ9InBhdGgxMDkyODciIGlua3NjYXBlOmNvbm5lY3Rvci1jdXJ2YXR1cmU9IjAiIHN0eWxlPSJmaWxsOiMwMDc4RDc7IiBkPSJNMjYuNCw0MC4wMWMtMC43OSwwLTEuOTksMC0zLjE4LDBIMi4zOCAgICAgIEMwLjk5LDQwLjAxLDAsNDEsMCw0Mi4zOXYyOS41OGMwLDEuMzksMC45OSwyLjM4LDIuMzgsMi4zOGgyOC4xOWMxLjE5LDAsMi4zOC0wLjk5LDIuMzgtMi4zOFY0Ni41NkgyNi42di02LjU1SDI2LjR6ICAgICAgIE04LjczLDQ1Ljk2di0wLjE5di0wLjJjMCwwLDAsMCwwLjItMC4ybDIuMzgtMS41OWMwLDAsMCwwLDAuMiwwaDAuMmgwLjJjMC4yLDAsMC4yLDAsMC40LDBjMC4xOSwwLDAuMzksMCwwLjU5LDBzMC4yLDAsMC40LDAgICAgICBoMC4yYzAsMCwwLDAsMCwwLjJ2OS4zM2gxLjc4aDAuMmMwLDAsMCwwLDAuMiwwLjJjMC4yLDAuMTksMCwwLjE5LDAsMC4xOWMwLDAuMiwwLDAuMiwwLDAuNHMwLDAuNCwwLDAuNGMwLDAuMiwwLDAuMiwwLDAuMiAgICAgIHMwLDAuMi0wLjIsMC4yYzAsMCwwLDAtMC4yLDBIOS4xM2MwLDAsMCwwLTAuMiwwYzAsMCwwLDAtMC4yLTAuMnYtMC4yYzAtMC4yLDAtMC4yLDAtMC40czAtMC40LDAtMC40YzAtMC4xOSwwLTAuMTksMC0wLjE5ICAgICAgczAtMC4yLDAuMi0wLjJjMCwwLDAsMCwwLjIsMGgyLjE4di03LjM1bC0xLjc4LDFjLTAuMiwwLTAuMiwwLjE5LTAuNCwwLjE5aC0wLjJjMCwwLDAtMC4xOS0wLjItMC4xOWMwLTAuMiwwLTAuMiwwLTAuNiAgICAgIEM4LjczLDQ2LjE2LDguNzMsNDUuOTYsOC43Myw0NS45NnogTTE1LjY4LDY3LjJjLTAuMiwwLjgtMC40LDEuMzktMC43OSwxLjc5Yy0wLjQsMC41OS0wLjgsMC45OS0xLjE5LDEuMTkgICAgICBjLTAuNiwwLjItMS4yLDAuNC0xLjk5LDAuNHMtMS4zOS0wLjItMS45OC0wLjRjLTAuNi0wLjItMS0wLjYtMS4xOS0xLjE5Yy0wLjItMC42LTAuNi0xLjE5LTAuNi0xLjc5ICAgICAgYy0wLjItMC43OS0wLjItMS41OS0wLjItMi4zOGMwLTAuOTksMC0xLjc5LDAuMi0yLjM4YzAuMi0wLjgsMC40LTEuMzksMC43OS0xLjc5YzAuNC0wLjM5LDAuOC0wLjk5LDEuMTktMS4xOSAgICAgIGMwLjYtMC4yLDEuMi0wLjQsMS45OS0wLjRzMS4zOSwwLjIsMS45OCwwLjRjMC42LDAuMiwxLDAuNiwxLjIsMS4xOWMwLjE5LDAuNiwwLjU5LDEuMTksMC41OSwxLjc5YzAuMiwwLjc5LDAuMiwxLjU5LDAuMiwyLjM4ICAgICAgQzE1Ljg4LDY1LjgxLDE1Ljg4LDY2LjYxLDE1LjY4LDY3LjJ6IE0yNC42MSw2OS45OGMwLDAuMiwwLDAuMiwwLDAuMnMwLDAuMi0wLjIsMC4yYzAsMCwwLDAtMC4xOSwwaC02LjE2YzAsMCwwLDAtMC4yLDAgICAgICBjMCwwLDAsMC0wLjE5LTAuMnYtMC4yYzAtMC4yLDAtMC4yLDAtMC40YzAtMC4xOSwwLTAuMzksMC0wLjM5YzAtMC4yLDAtMC4yLDAtMC4yczAtMC4yLDAuMTktMC4yYzAsMCwwLDAsMC4yLDBoMi4xOXYtNy4zNCAgICAgIGwtMS43OSwwLjk5Yy0wLjIsMC0wLjIsMC4yLTAuNCwwLjJoLTAuMmMwLDAsMC0wLjItMC4xOS0wLjJjMC0wLjIsMC0wLjIsMC0wLjZjMC0wLjIsMC0wLjIsMC0wLjM5di0wLjJ2LTAuMmMwLDAsMCwwLDAuMTktMC4yICAgICAgbDIuMzktMS41OWMwLDAsMCwwLDAuMTksMGgwLjJoMC4yYzAuMiwwLDAuMiwwLDAuNCwwYzAuMiwwLDAuNCwwLDAuNTksMGMwLjIsMCwwLjIsMCwwLjQsMGgwLjJjMCwwLDAsMCwwLDAuMnY5LjMzaDEuNzloMC4xOSAgICAgIGMwLDAsMCwwLDAuMiwwLjJ2MC4yYzAsMC4yLDAsMC4yLDAsMC4zOUMyNC42MSw2OS43OCwyNC42MSw2OS45OCwyNC42MSw2OS45OHogTTI0LjgxLDUxLjcyYy0wLjIsMC43OS0wLjQsMS4zOS0wLjc5LDEuNzkgICAgICBjLTAuNCwwLjU5LTAuOCwwLjk5LTEuMTksMS4xOWMtMC42LDAuMi0xLjE5LDAuMzktMS45OSwwLjM5Yy0wLjc5LDAtMS4zOS0wLjE5LTEuOTgtMC4zOWMtMC42LTAuMi0xLTAuNi0xLjE5LTEuMTkgICAgICBjLTAuMi0wLjQtMC42LTEuMTktMC42LTEuNzljMC0wLjYtMC4yLTEuNTktMC4yLTIuMzhjMC0wLjk5LDAtMS43OSwwLjItMi4zOGMwLjItMC44LDAuNC0xLjM5LDAuNzktMS43OSAgICAgIGMwLjQtMC42LDAuOC0wLjk5LDEuMTktMS4xOWMwLjYtMC4yLDEuMi0wLjQsMS45OS0wLjRjMC43OSwwLDEuMzksMC4yLDEuOTgsMC40YzAuNiwwLjIsMSwwLjU5LDEuMiwxLjE5ICAgICAgYzAuMTksMC42LDAuNTksMS4xOSwwLjU5LDEuNzljMC4yLDAuNzksMC4yLDEuNTgsMC4yLDIuMzhDMjUuMDEsNTAuMzMsMjQuODEsNTEuMTIsMjQuODEsNTEuNzJ6Ii8+JiN4YTsJCQk8L2c+JiN4YTsJCTwvZz4mI3hhOwk8L2c+JiN4YTs8L2c+JiN4YTs8L3N2Zz4=;" vertex="1" parent="aVTbyJzQtQtvYW84gZHe-65">
          <mxGeometry x="250" y="115" width="76" height="66" as="geometry" />
        </mxCell>
        <mxCell id="aVTbyJzQtQtvYW84gZHe-74" value="Azure VM" style="image;aspect=fixed;html=1;points=[];align=center;fontSize=12;image=img/lib/azure2/compute/Virtual_Machine.svg;" vertex="1" parent="aVTbyJzQtQtvYW84gZHe-65">
          <mxGeometry x="257.5" y="248" width="69" height="64" as="geometry" />
        </mxCell>
        <mxCell id="aVTbyJzQtQtvYW84gZHe-76" value="Azure Network &#xa;Watcher" style="shape=image;verticalLabelPosition=bottom;labelBackgroundColor=#ffffff;verticalAlign=top;aspect=fixed;imageAspect=0;image=data:image/svg+xml,PHN2ZyB4bWxuczpjYz0iaHR0cDovL2NyZWF0aXZlY29tbW9ucy5vcmcvbnMjIiB4bWxuczpkYz0iaHR0cDovL3B1cmwub3JnL2RjL2VsZW1lbnRzLzEuMS8iIHhtbG5zOmlua3NjYXBlPSJodHRwOi8vd3d3Lmlua3NjYXBlLm9yZy9uYW1lc3BhY2VzL2lua3NjYXBlIiB4bWxuczpyZGY9Imh0dHA6Ly93d3cudzMub3JnLzE5OTkvMDIvMjItcmRmLXN5bnRheC1ucyMiIHhtbG5zOnNvZGlwb2RpPSJodHRwOi8vc29kaXBvZGkuc291cmNlZm9yZ2UubmV0L0RURC9zb2RpcG9kaS0wLmR0ZCIgeG1sbnM6c3ZnPSJodHRwOi8vd3d3LnczLm9yZy8yMDAwL3N2ZyIgeG1sbnM9Imh0dHA6Ly93d3cudzMub3JnLzIwMDAvc3ZnIiB4bWxuczp4bGluaz0iaHR0cDovL3d3dy53My5vcmcvMTk5OS94bGluayIgdmVyc2lvbj0iMS4xIiBpZD0ic3ZnNTk1ODMiIGlua3NjYXBlOnZlcnNpb249IjAuOTIuMyAoMjQwNTU0NiwgMjAxOC0wMy0xMSkiIHNvZGlwb2RpOmRvY25hbWU9ImF6dXJlX25ldHdvcmtfd2F0Y2hlci5zdmciIHg9IjBweCIgeT0iMHB4IiB2aWV3Qm94PSIwIDAgMzcuMjkgMzcuMzEiIHN0eWxlPSJlbmFibGUtYmFja2dyb3VuZDpuZXcgMCAwIDM3LjI5IDM3LjMxOyIgeG1sOnNwYWNlPSJwcmVzZXJ2ZSI+JiN4YTs8c29kaXBvZGk6bmFtZWR2aWV3IGJvcmRlcmNvbG9yPSIjNjY2NjY2IiBib3JkZXJvcGFjaXR5PSIxIiBmaXQtbWFyZ2luLWJvdHRvbT0iMCIgZml0LW1hcmdpbi1sZWZ0PSIwIiBmaXQtbWFyZ2luLXJpZ2h0PSIwIiBmaXQtbWFyZ2luLXRvcD0iMCIgZ3JpZHRvbGVyYW5jZT0iMTAiIGd1aWRldG9sZXJhbmNlPSIxMCIgaWQ9Im5hbWVkdmlldzU5NTg1IiBpbmtzY2FwZTpjdXJyZW50LWxheWVyPSJzdmc1OTU4MyIgaW5rc2NhcGU6Y3g9IjE2LjIyNDY3NCIgaW5rc2NhcGU6Y3k9IjE4LjMxMTYyOCIgaW5rc2NhcGU6cGFnZW9wYWNpdHk9IjAiIGlua3NjYXBlOnBhZ2VzaGFkb3c9IjIiIGlua3NjYXBlOndpbmRvdy1oZWlnaHQ9IjEwMTciIGlua3NjYXBlOndpbmRvdy1tYXhpbWl6ZWQ9IjEiIGlua3NjYXBlOndpbmRvdy13aWR0aD0iMTkyMCIgaW5rc2NhcGU6d2luZG93LXg9Ii04IiBpbmtzY2FwZTp3aW5kb3cteT0iLTgiIGlua3NjYXBlOnpvb209IjExLjg0ODEyOCIgb2JqZWN0dG9sZXJhbmNlPSIxMCIgcGFnZWNvbG9yPSIjZmZmZmZmIiBzaG93Z3JpZD0iZmFsc2UiPiYjeGE7CTwvc29kaXBvZGk6bmFtZWR2aWV3PiYjeGE7PGcgaWQ9Imc1OTU4MSIgdHJhbnNmb3JtPSJ0cmFuc2xhdGUoLTAuNzUwMDAxMjQsLTAuNzUyNTYwODUpIj4mI3hhOwk8dGl0bGUgaWQ9InRpdGxlNTk1MDYiPlBhZ2UtMTwvdGl0bGU+JiN4YTsJPGcgaWQ9Imdyb3VwNTY0NC0xIiB0cmFuc2Zvcm09InRyYW5zbGF0ZSgxLjMyMjQ3LC0xLjMyMjQ3KSI+JiN4YTsJCTx0aXRsZSBpZD0idGl0bGU1OTUwOCI+QXp1cmUgTmV0d29yayBXYXRjaGVyPC90aXRsZT4mI3hhOwkJPGcgaWQ9InNoYXBlNTY0NS0yIiB0cmFuc2Zvcm09InRyYW5zbGF0ZSgxMC41NTI1LC0xMC42NSkiPiYjeGE7CQkJPHRpdGxlIGlkPSJ0aXRsZTU5NTEwIj5wYXRoNjk2MDwvdGl0bGU+JiN4YTsJCQk8cGF0aCBpZD0icGF0aDU5NTEyIiBpbmtzY2FwZTpjb25uZWN0b3ItY3VydmF0dXJlPSIwIiBzdHlsZT0iZmlsbDojRkZGRkZGOyIgZD0iTTEyLjY3LDEzLjQ3Yy02Ljg4LDAtMTIuNSw1LjQ5LTEyLjY3LDEyLjM2ICAgICBjNC43My0yLjQ4LDEwLjU3LTAuNjYsMTMuMDUsNC4wN2MxLjQ2LDIuNzksMS40OCw2LjExLDAuMDQsOC45MWM3LTAuMTIsMTIuNTgtNS44OCwxMi40Ni0xMi44OCAgICAgQzI1LjQzLDE4LjkzLDE5LjY3LDEzLjM1LDEyLjY3LDEzLjQ3eiIvPiYjeGE7CQk8L2c+JiN4YTsJCTxnIGlkPSJzaGFwZTU2NDYtNCIgdHJhbnNmb3JtPSJ0cmFuc2xhdGUoMjIuNzU1LC0xMC4xMSkiPiYjeGE7CQkJPHRpdGxlIGlkPSJ0aXRsZTU5NTE1Ij5wYXRoNjk2MjwvdGl0bGU+JiN4YTsJCQk8cGF0aCBpZD0icGF0aDU5NTE3IiBpbmtzY2FwZTpjb25uZWN0b3ItY3VydmF0dXJlPSIwIiBzdHlsZT0iZmlsbDojMzg5OEM1OyIgZD0iTTEuMiwzOC44MWMyLjc1LTIuNDIsNS42OS02LjI1LDUuNjktMTMuMiAgICAgYzAtNi45NC0yLjg5LTEwLjkyLTUuNzItMTMuMmwtMS4xNSwxLjEyYzIuNjUsMi4xNCw1LjEsNS4wOCw1LjEsMTIuMDhjMCw2Ljk5LTIuNTMsOS44My01LjEyLDEyLjFMMS4yLDM4LjgxeiIvPiYjeGE7CQk8L2c+JiN4YTsJCTxnIGlkPSJzaGFwZTU2NDctNiIgdHJhbnNmb3JtPSJ0cmFuc2xhdGUoMTEuMzg1LC0yMi41MTUpIj4mI3hhOwkJCTx0aXRsZSBpZD0idGl0bGU1OTUyMCI+cmVjdDY5NjQ8L3RpdGxlPiYjeGE7CQkJPHJlY3QgaWQ9InJlY3Q1OTUyMiIgeD0iMCIgeT0iMzcuMjIiIHN0eWxlPSJmaWxsOiMzODk4QzU7IiB3aWR0aD0iMjMuODMiIGhlaWdodD0iMS41OSIvPiYjeGE7CQk8L2c+JiN4YTsJCTxnIGlkPSJzaGFwZTU2NDgtOCIgdHJhbnNmb3JtPSJ0cmFuc2xhdGUoMTIuODAyNSwtMjcuODg1KSI+JiN4YTsJCQk8dGl0bGUgaWQ9InRpdGxlNTk1MjUiPnBhdGg2OTY2PC90aXRsZT4mI3hhOwkJCTxwYXRoIGlkPSJwYXRoNTk1MjciIGlua3NjYXBlOmNvbm5lY3Rvci1jdXJ2YXR1cmU9IjAiIHN0eWxlPSJmaWxsOiMzODk4QzU7IiBkPSJNMTAuNSwzNy40NGMtMy45MSwwLTcuNDQtMS4wOS05LjU1LTIuNzEgICAgIEwwLDM1LjY5YzIuMzUsMS44OSw2LjE3LDMuMTIsMTAuNSwzLjEyczguMTUtMS4yNCwxMC41LTMuMTJsLTAuOTUtMC45NkMxNy45NCwzNi4zNSwxNC40MSwzNy40NCwxMC41LDM3LjQ0eiIvPiYjeGE7CQk8L2c+JiN4YTsJCTxnIGlkPSJzaGFwZTU2NDktMTAiPiYjeGE7CQkJPHRpdGxlIGlkPSJ0aXRsZTU5NTMwIj5wYXRoNjk2ODwvdGl0bGU+JiN4YTsJCQk8cGF0aCBpZD0icGF0aDU5NTMyIiBpbmtzY2FwZTpjb25uZWN0b3ItY3VydmF0dXJlPSIwIiBzdHlsZT0iZmlsbDojN0E3QjdCOyIgZD0iTTcuNSwyOC4zMUwwLDM1LjgxYy0wLjgsMC44Ni0wLjc2LDIuMiwwLjEsMyAgICAgYzAuODIsMC43NiwyLjA4LDAuNzYsMi45LDBsNy41LTcuNUw3LjUsMjguMzF6Ii8+JiN4YTsJCTwvZz4mI3hhOwkJPGcgaWQ9InNoYXBlNTY1MC0xMiIgdHJhbnNmb3JtPSJ0cmFuc2xhdGUoNC41NTI1LC00LjU2KSI+JiN4YTsJCQk8dGl0bGUgaWQ9InRpdGxlNTk1MzUiPnBhdGg2OTcwPC90aXRsZT4mI3hhOwkJCTxwYXRoIGlkPSJwYXRoNTk1MzciIGlua3NjYXBlOmNvbm5lY3Rvci1jdXJ2YXR1cmU9IjAiIHN0eWxlPSJmaWxsOiMxRDFEMUQ7ZmlsbC1vcGFjaXR5OjAuNDsiIGQ9Ik0wLDM1LjgxICAgICBjMC43OSwxLjE5LDEuODEsMi4yMSwzLDNsMS45Ni0xLjk3bC0zLTNMMCwzNS44MXoiLz4mI3hhOwkJPC9nPiYjeGE7CQk8ZyBpZD0ic2hhcGU1NjUxLTE0IiB0cmFuc2Zvcm09InRyYW5zbGF0ZSg4LjEsLTguMzg1KSI+JiN4YTsJCQk8dGl0bGUgaWQ9InRpdGxlNTk1NDAiPmNpcmNsZTY5NzI8L3RpdGxlPiYjeGE7CQkJPGNpcmNsZSBpZD0iZWxsaXBzZTU5NTQyIiBzdHlsZT0iZmlsbDojRkZGRkZGOyIgY3g9IjYuNzUiIGN5PSIzMi4wNiIgcj0iNi43NSIvPiYjeGE7CQk8L2c+JiN4YTsJCTxnIGlkPSJzaGFwZTU2NTItMTYiIHRyYW5zZm9ybT0idHJhbnNsYXRlKDYuODAyNSwtNi44MSkiPiYjeGE7CQkJPHRpdGxlIGlkPSJ0aXRsZTU5NTQ1Ij5jaXJjbGU2OTc0PC90aXRsZT4mI3hhOwkJCTxjaXJjbGUgaWQ9ImVsbGlwc2U1OTU0NyIgc3R5bGU9ImZpbGw6I0ZGRkZGRjsiIGN4PSI4LjI1IiBjeT0iMzAuNTYiIHI9IjguMjUiLz4mI3hhOwkJPC9nPiYjeGE7CQk8ZyBpZD0ic2hhcGU1NjUzLTE4IiB0cmFuc2Zvcm09InRyYW5zbGF0ZSgxNi45OTUsLTI0KSI+JiN4YTsJCQk8dGl0bGUgaWQ9InRpdGxlNTk1NTAiPnBhdGg2OTc2PC90aXRsZT4mI3hhOwkJCTxwYXRoIGlkPSJwYXRoNTk1NTIiIGlua3NjYXBlOmNvbm5lY3Rvci1jdXJ2YXR1cmU9IjAiIHN0eWxlPSJmaWxsOiMzODk4QzU7IiBkPSJNMS43NSwzOC44MWMwLjE2LTYuNTEsMi41Mi05LjMzLDUuMDgtMTEuMzkgICAgIEw1LjY4LDI2LjNjLTIuNjUsMi4xNC01LjM3LDUuNzktNS42OCwxMkMwLjYsMzguNDEsMS4xOCwzOC41OCwxLjc1LDM4LjgxeiIvPiYjeGE7CQk8L2c+JiN4YTsJCTxnIGlkPSJzaGFwZTU2NTQtMjAiIHRyYW5zZm9ybT0idHJhbnNsYXRlKDI0LjAwNzUsLTE0LjYzMjUpIj4mI3hhOwkJCTx0aXRsZSBpZD0idGl0bGU1OTU1NSI+cGF0aDY5Nzg8L3RpdGxlPiYjeGE7CQkJPHBhdGggaWQ9InBhdGg1OTU1NyIgaW5rc2NhcGU6Y29ubmVjdG9yLWN1cnZhdHVyZT0iMCIgc3R5bGU9ImZpbGw6IzM4OThDNTsiIGQ9Ik0wLDM0LjczYzAuMTgsMC40NSwwLjMzLDAuOTIsMC40NCwxLjQgICAgIGMzLjQ0LDAuMTksNi41LDEuMjEsOC40LDIuNjhsMC45NS0wLjk5QzcuNTQsMzYuMDUsNC4wMywzNC44NSwwLDM0LjczeiIvPiYjeGE7CQk8L2c+JiN4YTsJCTxnIGlkPSJzaGFwZTU2NTUtMjIiIHRyYW5zZm9ybT0idHJhbnNsYXRlKDkuODc3NSwtOS44ODUpIj4mI3hhOwkJCTx0aXRsZSBpZD0idGl0bGU1OTU2MCI+cGF0aDY5ODA8L3RpdGxlPiYjeGE7CQkJPHBhdGggaWQ9InBhdGg1OTU2MiIgaW5rc2NhcGU6Y29ubmVjdG9yLWN1cnZhdHVyZT0iMCIgc3R5bGU9ImZpbGw6IzM4OThDNTsiIGQ9Ik0xMy40MiwxMS45NkM2LjAxLDExLjk3LDAuMDEsMTcuOTcsMCwyNS4zOCAgICAgYzAsMCwwLDAuMDUsMCwwLjA4YzAuNTQtMC4zMywxLjEyLTAuNjEsMS43Mi0wLjgzYzAuNDEtNi40Nyw1Ljk4LTExLjM3LDEyLjQ1LTEwLjk2YzYuNDcsMC40MSwxMS4zNyw1Ljk4LDEwLjk2LDEyLjQ1ICAgICBjLTAuMzcsNS44OS01LjA3LDEwLjU5LTEwLjk2LDEwLjk2Yy0wLjIzLDAuNi0wLjUyLDEuMTgtMC44NiwxLjczaDAuMTFjNy40MSwwLDEzLjQyLTYuMDEsMTMuNDItMTMuNDMgICAgIEMyNi44NCwxNy45NywyMC44MywxMS45NiwxMy40MiwxMS45NnoiLz4mI3hhOwkJPC9nPiYjeGE7CQk8ZyBpZD0ic2hhcGU1NjU2LTI0IiB0cmFuc2Zvcm09InRyYW5zbGF0ZSg5LjA1MjUsLTEwLjU2KSI+JiN4YTsJCQk8dGl0bGUgaWQ9InRpdGxlNTk1NjUiPnBhdGg2OTgyPC90aXRsZT4mI3hhOwkJCTxwYXRoIGlkPSJwYXRoNTk1NjciIGlua3NjYXBlOmNvbm5lY3Rvci1jdXJ2YXR1cmU9IjAiIHN0eWxlPSJmaWxsOiM3RkJBMDA7IiBkPSJNNC45MywzOC44MWwtMS41NS00LjU5bC0xLjE5LDIuMzRIMHYtMS4xN2gxLjQ1ICAgICBsMi4xNS00LjIzbDEuMzMsMy45bDEuODktNS42NmwxLjU1LDQuNThsMS40NS0yLjc3SDEydjEuMTloLTEuNWwtMi4zNiw0LjY0bC0xLjMyLTMuOTFMNC45MywzOC44MXoiLz4mI3hhOwkJPC9nPiYjeGE7CQk8ZyBpZD0ic2hhcGU1NjU3LTI2IiB0cmFuc2Zvcm09InRyYW5zbGF0ZSg4Ljc5NzcsLTguMzEpIj4mI3hhOwkJCTx0aXRsZSBpZD0idGl0bGU1OTU3MCI+cGF0aDY5ODQ8L3RpdGxlPiYjeGE7CQkJPHBhdGggaWQ9InBhdGg1OTU3MiIgaW5rc2NhcGU6Y29ubmVjdG9yLWN1cnZhdHVyZT0iMCIgc3R5bGU9ImZpbGw6IzM4OThDNTtmaWxsLW9wYWNpdHk6MC4yOyIgZD0iTTAuNjIsMzQuNjcgICAgIGMwLTQuODcsMy40LTguMjUsOC4yNS04LjI1YzEuNDUsMC4wMSwyLjg4LDAuNCw0LjEzLDEuMTRjLTIuMjUtMy45Ni03LjI5LTUuMzUtMTEuMjUtMy4wOXMtNS4zNSw3LjI5LTMuMDksMTEuMjUgICAgIGMwLjczLDEuMjksMS44LDIuMzYsMy4wOSwzLjA5QzEuMDEsMzcuNTUsMC42MiwzNi4xMywwLjYyLDM0LjY3eiIvPiYjeGE7CQk8L2c+JiN4YTsJCTxnIGlkPSJzaGFwZTU2NTgtMjgiIHRyYW5zZm9ybT0idHJhbnNsYXRlKDcuNjgwOTEsLTcuMzM1KSI+JiN4YTsJCQk8dGl0bGUgaWQ9InRpdGxlNTk1NzUiPnBhdGg2OTg2PC90aXRsZT4mI3hhOwkJCTxwYXRoIGlkPSJwYXRoNTk1NzciIGlua3NjYXBlOmNvbm5lY3Rvci1jdXJ2YXR1cmU9IjAiIHN0eWxlPSJmaWxsOiM3QTdCN0I7IiBkPSJNNy4zNywyMC42NmMtNS43NiwwLTEwLjQyLDQuNjctMTAuNDIsMTAuNDMgICAgIGMwLDUuNzYsNC42NywxMC40MiwxMC40MywxMC40MlMxNy44LDM2Ljg0LDE3LjgsMzEuMDhDMTcuOCwyNS4zMiwxMy4xMywyMC42Niw3LjM3LDIwLjY2QzcuMzcsMjAuNjYsNy4zNywyMC42Niw3LjM3LDIwLjY2eiAgICAgIE03LjM3LDM4LjgxYy00LjI3LDAtNy43Mi0zLjQ2LTcuNzItNy43M2MwLTQuMjcsMy40Ni03LjcyLDcuNzMtNy43MmM0LjI2LDAsNy43MiwzLjQ2LDcuNzIsNy43MmMwLDQuMjctMy40NSw3LjczLTcuNzIsNy43MyAgICAgQzcuMzgsMzguODEsNy4zNywzOC44MSw3LjM3LDM4LjgxeiIvPiYjeGE7CQk8L2c+JiN4YTsJPC9nPiYjeGE7PC9nPiYjeGE7PC9zdmc+;" vertex="1" parent="aVTbyJzQtQtvYW84gZHe-65">
          <mxGeometry x="310" y="361" width="60" height="60" as="geometry" />
        </mxCell>
        <mxCell id="aVTbyJzQtQtvYW84gZHe-77" value="Azure Log&#xa; Analytics" style="shape=image;verticalLabelPosition=bottom;labelBackgroundColor=#ffffff;verticalAlign=top;aspect=fixed;imageAspect=0;image=data:image/svg+xml,PHN2ZyB4bWxuczpjYz0iaHR0cDovL2NyZWF0aXZlY29tbW9ucy5vcmcvbnMjIiB4bWxuczpkYz0iaHR0cDovL3B1cmwub3JnL2RjL2VsZW1lbnRzLzEuMS8iIHhtbG5zOmlua3NjYXBlPSJodHRwOi8vd3d3Lmlua3NjYXBlLm9yZy9uYW1lc3BhY2VzL2lua3NjYXBlIiB4bWxuczpyZGY9Imh0dHA6Ly93d3cudzMub3JnLzE5OTkvMDIvMjItcmRmLXN5bnRheC1ucyMiIHhtbG5zOnNvZGlwb2RpPSJodHRwOi8vc29kaXBvZGkuc291cmNlZm9yZ2UubmV0L0RURC9zb2RpcG9kaS0wLmR0ZCIgeG1sbnM6c3ZnPSJodHRwOi8vd3d3LnczLm9yZy8yMDAwL3N2ZyIgeG1sbnM9Imh0dHA6Ly93d3cudzMub3JnLzIwMDAvc3ZnIiB4bWxuczp4bGluaz0iaHR0cDovL3d3dy53My5vcmcvMTk5OS94bGluayIgdmVyc2lvbj0iMS4xIiBpZD0ic3ZnODMwNDIiIGlua3NjYXBlOnZlcnNpb249IjAuOTIuMyAoMjQwNTU0NiwgMjAxOC0wMy0xMSkiIHNvZGlwb2RpOmRvY25hbWU9ImxvZ19hbmFseXRpY3Muc3ZnIiB4PSIwcHgiIHk9IjBweCIgdmlld0JveD0iMCAwIDM3LjM1IDM3LjM0IiBzdHlsZT0iZW5hYmxlLWJhY2tncm91bmQ6bmV3IDAgMCAzNy4zNSAzNy4zNDsiIHhtbDpzcGFjZT0icHJlc2VydmUiPiYjeGE7PHNvZGlwb2RpOm5hbWVkdmlldyBib3JkZXJjb2xvcj0iIzY2NjY2NiIgYm9yZGVyb3BhY2l0eT0iMSIgZml0LW1hcmdpbi1ib3R0b209IjAiIGZpdC1tYXJnaW4tbGVmdD0iMCIgZml0LW1hcmdpbi1yaWdodD0iMCIgZml0LW1hcmdpbi10b3A9IjAiIGdyaWR0b2xlcmFuY2U9IjEwIiBndWlkZXRvbGVyYW5jZT0iMTAiIGlkPSJuYW1lZHZpZXc4MzA0NCIgaW5rc2NhcGU6Y3VycmVudC1sYXllcj0ic3ZnODMwNDIiIGlua3NjYXBlOmN4PSIyNy42MTI2MzEiIGlua3NjYXBlOmN5PSIyNC4yMjAzOTMiIGlua3NjYXBlOnBhZ2VvcGFjaXR5PSIwIiBpbmtzY2FwZTpwYWdlc2hhZG93PSIyIiBpbmtzY2FwZTp3aW5kb3ctaGVpZ2h0PSIxMDE3IiBpbmtzY2FwZTp3aW5kb3ctbWF4aW1pemVkPSIxIiBpbmtzY2FwZTp3aW5kb3ctd2lkdGg9IjE5MjAiIGlua3NjYXBlOndpbmRvdy14PSItOCIgaW5rc2NhcGU6d2luZG93LXk9Ii04IiBpbmtzY2FwZTp6b29tPSIxMS44MzY2ODYiIG9iamVjdHRvbGVyYW5jZT0iMTAiIHBhZ2Vjb2xvcj0iI2ZmZmZmZiIgc2hvd2dyaWQ9ImZhbHNlIj4mI3hhOwk8L3NvZGlwb2RpOm5hbWVkdmlldz4mI3hhOzxnIGlkPSJnODMwNDAiIHRyYW5zZm9ybT0idHJhbnNsYXRlKC0wLjc1LC0wLjc0NTAzMTgzKSI+JiN4YTsJPHRpdGxlIGlkPSJ0aXRsZTgzMDE5Ij5QYWdlLTE8L3RpdGxlPiYjeGE7CTxnIGlkPSJncm91cDU0NDctMSIgdHJhbnNmb3JtPSJ0cmFuc2xhdGUoMC43NSwtMC43NSkiPiYjeGE7CQk8dGl0bGUgaWQ9InRpdGxlODMwMjEiPkxvZyBBbmFseXRpY3M8L3RpdGxlPiYjeGE7CQk8ZyBpZD0iZ3JvdXA1NDQ4LTIiPiYjeGE7CQkJPHRpdGxlIGlkPSJ0aXRsZTgzMDIzIj5QYWdlLTE8L3RpdGxlPiYjeGE7CQkJPGcgaWQ9Imdyb3VwNTQ0OS0zIj4mI3hhOwkJCQk8dGl0bGUgaWQ9InRpdGxlODMwMjUiPlNoZWV0LjU0NDk8L3RpdGxlPiYjeGE7CQkJCTxnIGlkPSJzaGFwZTU0NTAtNCI+JiN4YTsJCQkJCTx0aXRsZSBpZD0idGl0bGU4MzAyNyI+U2hlZXQuNTQ1MDwvdGl0bGU+JiN4YTsJCQkJCTxwYXRoIGlkPSJwYXRoODMwMjkiIGlua3NjYXBlOmNvbm5lY3Rvci1jdXJ2YXR1cmU9IjAiIHN0eWxlPSJmaWxsOiMwMDc4RDc7IiBkPSJNOS42OCwyOS4xN1YxNi41M0M0LjE3LDE3LjI2LDAsMjEuOTYsMCwyNy42NyAgICAgICBjMCw2LjIxLDQuOTYsMTEuMTcsMTEuMTgsMTEuMTdjNS43LDAsMTAuNC00LjE3LDExLjEzLTkuNjdIOS42OHogTTMuNjgsMjQuNjdoM3YzaC0zVjI0LjY3eiBNOS42OCwzNi42N2gtM3YtM2gzVjM2LjY3eiAgICAgICAgTTE4LjY4LDMzLjY3aC0zdi0zaDNWMzMuNjd6Ii8+JiN4YTsJCQkJPC9nPiYjeGE7CQkJCTxnIGlkPSJzaGFwZTU0NTEtNiIgdHJhbnNmb3JtPSJ0cmFuc2xhdGUoMTEuMTc1LC0xMS4xNzUpIj4mI3hhOwkJCQkJPHRpdGxlIGlkPSJ0aXRsZTgzMDMyIj5TaGVldC41NDUxPC90aXRsZT4mI3hhOwkJCQkJPHBhdGggaWQ9InBhdGg4MzAzNCIgaW5rc2NhcGU6Y29ubmVjdG9yLWN1cnZhdHVyZT0iMCIgc3R5bGU9ImZpbGw6IzAwNzhENzsiIGQ9Ik0xMy4xMywxMi42N0M1Ljc4LDEyLjY3LDAsMTguMzcsMCwyNS43MiAgICAgICB2MTMuMTJjMCwwLDkuNzUsMCwxMy4xMywwYzcuMzQsMCwxMy4wNS01Ljc4LDEzLjA1LTEzLjEyQzI2LjE4LDE4LjM3LDIwLjQ3LDEyLjY3LDEzLjEzLDEyLjY3eiBNOC4yNSwzMi40N0g1LjYzdi04LjYzaDIuNjIgICAgICAgVjMyLjQ3eiBNMTMuODgsMzIuNDdoLTIuNjN2LTZoMi42M1YzMi40N3ogTTE5LjUsMzIuNDdoLTIuNjJWMjAuODRoMi42MlYzMi40N3oiLz4mI3hhOwkJCQk8L2c+JiN4YTsJCQk8L2c+JiN4YTsJCTwvZz4mI3hhOwk8L2c+JiN4YTs8L2c+JiN4YTs8L3N2Zz4=;" vertex="1" parent="aVTbyJzQtQtvYW84gZHe-65">
          <mxGeometry x="180" y="371" width="56" height="56" as="geometry" />
        </mxCell>
        <mxCell id="aVTbyJzQtQtvYW84gZHe-78" value="Application&amp;nbsp;&lt;div&gt;Insights&lt;/div&gt;" style="image;aspect=fixed;html=1;points=[];align=center;fontSize=12;image=img/lib/azure2/devops/Application_Insights.svg;" vertex="1" parent="aVTbyJzQtQtvYW84gZHe-65">
          <mxGeometry x="60" y="371" width="44" height="63" as="geometry" />
        </mxCell>
        <mxCell id="aVTbyJzQtQtvYW84gZHe-79" value="" style="endArrow=classic;html=1;rounded=0;entryX=1;entryY=0.5;entryDx=0;entryDy=0;" edge="1" parent="aVTbyJzQtQtvYW84gZHe-65" target="aVTbyJzQtQtvYW84gZHe-35">
          <mxGeometry width="50" height="50" relative="1" as="geometry">
            <mxPoint x="230" y="550" as="sourcePoint" />
            <mxPoint x="280" y="500" as="targetPoint" />
            <Array as="points">
              <mxPoint x="230" y="645" />
            </Array>
          </mxGeometry>
        </mxCell>
        <mxCell id="aVTbyJzQtQtvYW84gZHe-71" value="" style="endArrow=classic;html=1;rounded=0;exitX=1;exitY=0.442;exitDx=0;exitDy=0;exitPerimeter=0;entryX=-0.002;entryY=0.372;entryDx=0;entryDy=0;entryPerimeter=0;" edge="1" parent="1" target="aVTbyJzQtQtvYW84gZHe-61">
          <mxGeometry width="50" height="50" relative="1" as="geometry">
            <mxPoint x="519.44" y="349.9" as="sourcePoint" />
            <mxPoint x="710" y="347.09000000000003" as="targetPoint" />
          </mxGeometry>
        </mxCell>
      </root>
    </mxGraphModel>
  </diagram>
</mxfile>
